ISO-10303-21;
HEADER;
/* Generated by software containing ST-Developer
 * from STEP Tools, Inc. (www.steptools.com) 
 */

FILE_DESCRIPTION(
/* description */ (
'CAx-IF Rec.Pracs.---Representation and Presentation of Product Manufa
cturing Information (PMI)---4.0---2014-10-13',
'CAx-IF Rec.Pracs.---3D Tessellated Geometry---0.4---2014-09-14','2;1'),

/* implementation_level */ '2;1');

FILE_NAME(
/* name */ 'tool_sander',
/* time_stamp */ '2025-07-31T23:47:19+03:00',
/* author */ (''),
/* organization */ (''),
/* preprocessor_version */ 'ST-DEVELOPER v16.7',
/* originating_system */ $,
/* authorisation */ $);

FILE_SCHEMA (('AP242_MANAGED_MODEL_BASED_3D_ENGINEERING_MIM_LF { 1 0 10303 442 20130219 1 4 }'));
ENDSEC;

DATA;
#10=PROPERTY_DEFINITION_REPRESENTATION(#14,#12);
#11=PROPERTY_DEFINITION_REPRESENTATION(#15,#13);
#12=REPRESENTATION('',(#16),#1901);
#13=REPRESENTATION('',(#17),#1901);
#14=PROPERTY_DEFINITION('pmi validation property','',#1906);
#15=PROPERTY_DEFINITION('pmi validation property','',#1906);
#16=VALUE_REPRESENTATION_ITEM('number of annotations',COUNT_MEASURE(0.));
#17=VALUE_REPRESENTATION_ITEM('number of views',COUNT_MEASURE(8.));
#18=CAMERA_MODEL_D3('Top',#1225,#26);
#19=CAMERA_MODEL_D3('Front',#1227,#27);
#20=CAMERA_MODEL_D3('Right',#1229,#28);
#21=CAMERA_MODEL_D3('Back',#1231,#29);
#22=CAMERA_MODEL_D3('Bottom',#1233,#30);
#23=CAMERA_MODEL_D3('Left',#1235,#31);
#24=CAMERA_MODEL_D3('Isometric',#1237,#32);
#25=CAMERA_MODEL_D3('Trimetric',#1239,#33);
#26=VIEW_VOLUME(.PARALLEL.,#1877,0.,0.,.F.,0.,.F.,.F.,#34);
#27=VIEW_VOLUME(.PARALLEL.,#1880,0.,0.,.F.,0.,.F.,.F.,#35);
#28=VIEW_VOLUME(.PARALLEL.,#1883,0.,0.,.F.,0.,.F.,.F.,#36);
#29=VIEW_VOLUME(.PARALLEL.,#1886,0.,0.,.F.,0.,.F.,.F.,#37);
#30=VIEW_VOLUME(.PARALLEL.,#1889,0.,0.,.F.,0.,.F.,.F.,#38);
#31=VIEW_VOLUME(.PARALLEL.,#1892,0.,0.,.F.,0.,.F.,.F.,#39);
#32=VIEW_VOLUME(.PARALLEL.,#1895,0.,0.,.F.,0.,.F.,.F.,#40);
#33=VIEW_VOLUME(.PARALLEL.,#1898,0.,0.,.F.,0.,.F.,.F.,#41);
#34=PLANAR_BOX('',0.154829630676702,0.154829630676702,#1226);
#35=PLANAR_BOX('',0.154964764506091,0.154964764506091,#1228);
#36=PLANAR_BOX('',0.154964764506091,0.154964764506091,#1230);
#37=PLANAR_BOX('',0.154964764506091,0.154964764506091,#1232);
#38=PLANAR_BOX('',0.154829630676702,0.154829630676702,#1234);
#39=PLANAR_BOX('',0.154964764506091,0.154964764506091,#1236);
#40=PLANAR_BOX('',0.205369551145909,0.205369551145909,#1238);
#41=PLANAR_BOX('',0.191469727870189,0.191469727870189,#1240);
#42=DRAUGHTING_MODEL('Top',(#18),#1901);
#43=DRAUGHTING_MODEL('Front',(#19),#1901);
#44=DRAUGHTING_MODEL('Right',(#20),#1901);
#45=DRAUGHTING_MODEL('Back',(#21),#1901);
#46=DRAUGHTING_MODEL('Bottom',(#22),#1901);
#47=DRAUGHTING_MODEL('Left',(#23),#1901);
#48=DRAUGHTING_MODEL('Isometric',(#24),#1901);
#49=DRAUGHTING_MODEL('Trimetric',(#25),#1901);
#50=SHAPE_REPRESENTATION_RELATIONSHIP('','',#1117,#51);
#51=ADVANCED_BREP_SHAPE_REPRESENTATION('',(#1115),#1901);
#52=PLANE('',#1122);
#53=PLANE('',#1124);
#54=PLANE('',#1147);
#55=PLANE('',#1150);
#56=PLANE('',#1153);
#57=PLANE('',#1154);
#58=PLANE('',#1155);
#59=PLANE('',#1156);
#60=PLANE('',#1157);
#61=PLANE('',#1158);
#62=PLANE('',#1159);
#63=PLANE('',#1164);
#64=PLANE('',#1165);
#65=PLANE('',#1166);
#66=PLANE('',#1171);
#67=PLANE('',#1172);
#68=PLANE('',#1173);
#69=PLANE('',#1179);
#70=PLANE('',#1180);
#71=PLANE('',#1181);
#72=PLANE('',#1186);
#73=PLANE('',#1187);
#74=PLANE('',#1188);
#75=PLANE('',#1193);
#76=PLANE('',#1194);
#77=PLANE('',#1195);
#78=PLANE('',#1200);
#79=PLANE('',#1201);
#80=PLANE('',#1202);
#81=PLANE('',#1208);
#82=PLANE('',#1209);
#83=PLANE('',#1210);
#84=PLANE('',#1215);
#85=PLANE('',#1216);
#86=PLANE('',#1217);
#87=PLANE('',#1220);
#88=PLANE('',#1221);
#89=PLANE('',#1222);
#90=PLANE('',#1223);
#91=PLANE('',#1224);
#92=LINE('',#1576,#192);
#93=LINE('',#1580,#193);
#94=LINE('',#1584,#194);
#95=LINE('',#1587,#195);
#96=LINE('',#1588,#196);
#97=LINE('',#1590,#197);
#98=LINE('',#1592,#198);
#99=LINE('',#1599,#199);
#100=LINE('',#1603,#200);
#101=LINE('',#1609,#201);
#102=LINE('',#1613,#202);
#103=LINE('',#1617,#203);
#104=LINE('',#1621,#204);
#105=LINE('',#1625,#205);
#106=LINE('',#1629,#206);
#107=LINE('',#1633,#207);
#108=LINE('',#1637,#208);
#109=LINE('',#1641,#209);
#110=LINE('',#1647,#210);
#111=LINE('',#1651,#211);
#112=LINE('',#1655,#212);
#113=LINE('',#1659,#213);
#114=LINE('',#1663,#214);
#115=LINE('',#1664,#215);
#116=LINE('',#1666,#216);
#117=LINE('',#1668,#217);
#118=LINE('',#1670,#218);
#119=LINE('',#1672,#219);
#120=LINE('',#1683,#220);
#121=LINE('',#1686,#221);
#122=LINE('',#1688,#222);
#123=LINE('',#1690,#223);
#124=LINE('',#1692,#224);
#125=LINE('',#1694,#225);
#126=LINE('',#1699,#226);
#127=LINE('',#1702,#227);
#128=LINE('',#1704,#228);
#129=LINE('',#1706,#229);
#130=LINE('',#1708,#230);
#131=LINE('',#1710,#231);
#132=LINE('',#1712,#232);
#133=LINE('',#1713,#233);
#134=LINE('',#1715,#234);
#135=LINE('',#1717,#235);
#136=LINE('',#1719,#236);
#137=LINE('',#1721,#237);
#138=LINE('',#1724,#238);
#139=LINE('',#1728,#239);
#140=LINE('',#1730,#240);
#141=LINE('',#1734,#241);
#142=LINE('',#1736,#242);
#143=LINE('',#1738,#243);
#144=LINE('',#1741,#244);
#145=LINE('',#1745,#245);
#146=LINE('',#1750,#246);
#147=LINE('',#1751,#247);
#148=LINE('',#1753,#248);
#149=LINE('',#1755,#249);
#150=LINE('',#1757,#250);
#151=LINE('',#1761,#251);
#152=LINE('',#1765,#252);
#153=LINE('',#1767,#253);
#154=LINE('',#1771,#254);
#155=LINE('',#1773,#255);
#156=LINE('',#1775,#256);
#157=LINE('',#1778,#257);
#158=LINE('',#1782,#258);
#159=LINE('',#1784,#259);
#160=LINE('',#1788,#260);
#161=LINE('',#1790,#261);
#162=LINE('',#1792,#262);
#163=LINE('',#1795,#263);
#164=LINE('',#1799,#264);
#165=LINE('',#1801,#265);
#166=LINE('',#1805,#266);
#167=LINE('',#1807,#267);
#168=LINE('',#1809,#268);
#169=LINE('',#1812,#269);
#170=LINE('',#1816,#270);
#171=LINE('',#1818,#271);
#172=LINE('',#1822,#272);
#173=LINE('',#1824,#273);
#174=LINE('',#1826,#274);
#175=LINE('',#1828,#275);
#176=LINE('',#1832,#276);
#177=LINE('',#1836,#277);
#178=LINE('',#1838,#278);
#179=LINE('',#1842,#279);
#180=LINE('',#1844,#280);
#181=LINE('',#1846,#281);
#182=LINE('',#1849,#282);
#183=LINE('',#1853,#283);
#184=LINE('',#1855,#284);
#185=LINE('',#1859,#285);
#186=LINE('',#1861,#286);
#187=LINE('',#1863,#287);
#188=LINE('',#1868,#288);
#189=LINE('',#1869,#289);
#190=LINE('',#1871,#290);
#191=LINE('',#1873,#291);
#192=VECTOR('',#1247,1000.);
#193=VECTOR('',#1250,1000.);
#194=VECTOR('',#1255,1000.);
#195=VECTOR('',#1256,1000.);
#196=VECTOR('',#1257,1000.);
#197=VECTOR('',#1258,1000.);
#198=VECTOR('',#1259,1000.);
#199=VECTOR('',#1266,1000.);
#200=VECTOR('',#1269,1000.);
#201=VECTOR('',#1274,1000.);
#202=VECTOR('',#1277,1000.);
#203=VECTOR('',#1280,1000.);
#204=VECTOR('',#1283,1000.);
#205=VECTOR('',#1286,1000.);
#206=VECTOR('',#1289,1000.);
#207=VECTOR('',#1292,1000.);
#208=VECTOR('',#1295,1000.);
#209=VECTOR('',#1298,1000.);
#210=VECTOR('',#1303,1000.);
#211=VECTOR('',#1306,1000.);
#212=VECTOR('',#1309,1000.);
#213=VECTOR('',#1312,1000.);
#214=VECTOR('',#1315,1000.);
#215=VECTOR('',#1316,1000.);
#216=VECTOR('',#1317,1000.);
#217=VECTOR('',#1318,1000.);
#218=VECTOR('',#1319,1000.);
#219=VECTOR('',#1320,1000.);
#220=VECTOR('',#1335,1000.);
#221=VECTOR('',#1336,1000.);
#222=VECTOR('',#1337,1000.);
#223=VECTOR('',#1338,1000.);
#224=VECTOR('',#1339,1000.);
#225=VECTOR('',#1340,1000.);
#226=VECTOR('',#1347,1000.);
#227=VECTOR('',#1348,1000.);
#228=VECTOR('',#1349,1000.);
#229=VECTOR('',#1350,1000.);
#230=VECTOR('',#1351,1000.);
#231=VECTOR('',#1352,1000.);
#232=VECTOR('',#1355,1000.);
#233=VECTOR('',#1356,1000.);
#234=VECTOR('',#1359,1000.);
#235=VECTOR('',#1362,1000.);
#236=VECTOR('',#1365,1000.);
#237=VECTOR('',#1368,1000.);
#238=VECTOR('',#1373,1000.);
#239=VECTOR('',#1376,1000.);
#240=VECTOR('',#1379,1000.);
#241=VECTOR('',#1382,1000.);
#242=VECTOR('',#1385,1000.);
#243=VECTOR('',#1388,1000.);
#244=VECTOR('',#1393,1000.);
#245=VECTOR('',#1396,1000.);
#246=VECTOR('',#1401,1000.);
#247=VECTOR('',#1402,1000.);
#248=VECTOR('',#1405,1000.);
#249=VECTOR('',#1406,1000.);
#250=VECTOR('',#1409,1000.);
#251=VECTOR('',#1416,1000.);
#252=VECTOR('',#1419,1000.);
#253=VECTOR('',#1422,1000.);
#254=VECTOR('',#1425,1000.);
#255=VECTOR('',#1428,1000.);
#256=VECTOR('',#1431,1000.);
#257=VECTOR('',#1436,1000.);
#258=VECTOR('',#1439,1000.);
#259=VECTOR('',#1442,1000.);
#260=VECTOR('',#1445,1000.);
#261=VECTOR('',#1448,1000.);
#262=VECTOR('',#1451,1000.);
#263=VECTOR('',#1456,1000.);
#264=VECTOR('',#1459,1000.);
#265=VECTOR('',#1462,1000.);
#266=VECTOR('',#1465,1000.);
#267=VECTOR('',#1468,1000.);
#268=VECTOR('',#1471,1000.);
#269=VECTOR('',#1476,1000.);
#270=VECTOR('',#1479,1000.);
#271=VECTOR('',#1482,1000.);
#272=VECTOR('',#1485,1000.);
#273=VECTOR('',#1488,1000.);
#274=VECTOR('',#1489,1000.);
#275=VECTOR('',#1492,1000.);
#276=VECTOR('',#1499,1000.);
#277=VECTOR('',#1502,1000.);
#278=VECTOR('',#1505,1000.);
#279=VECTOR('',#1508,1000.);
#280=VECTOR('',#1511,1000.);
#281=VECTOR('',#1514,1000.);
#282=VECTOR('',#1519,1000.);
#283=VECTOR('',#1522,1000.);
#284=VECTOR('',#1525,1000.);
#285=VECTOR('',#1528,1000.);
#286=VECTOR('',#1531,1000.);
#287=VECTOR('',#1534,1000.);
#288=VECTOR('',#1543,1000.);
#289=VECTOR('',#1544,1000.);
#290=VECTOR('',#1547,1000.);
#291=VECTOR('',#1550,1000.);
#292=ORIENTED_EDGE('',*,*,#580,.F.);
#293=ORIENTED_EDGE('',*,*,#581,.T.);
#294=ORIENTED_EDGE('',*,*,#582,.T.);
#295=ORIENTED_EDGE('',*,*,#583,.T.);
#296=ORIENTED_EDGE('',*,*,#584,.F.);
#297=ORIENTED_EDGE('',*,*,#585,.T.);
#298=ORIENTED_EDGE('',*,*,#586,.T.);
#299=ORIENTED_EDGE('',*,*,#580,.T.);
#300=ORIENTED_EDGE('',*,*,#587,.T.);
#301=ORIENTED_EDGE('',*,*,#588,.T.);
#302=ORIENTED_EDGE('',*,*,#589,.T.);
#303=ORIENTED_EDGE('',*,*,#590,.T.);
#304=ORIENTED_EDGE('',*,*,#591,.F.);
#305=ORIENTED_EDGE('',*,*,#592,.F.);
#306=ORIENTED_EDGE('',*,*,#593,.F.);
#307=ORIENTED_EDGE('',*,*,#594,.F.);
#308=ORIENTED_EDGE('',*,*,#595,.F.);
#309=ORIENTED_EDGE('',*,*,#596,.T.);
#310=ORIENTED_EDGE('',*,*,#597,.F.);
#311=ORIENTED_EDGE('',*,*,#598,.F.);
#312=ORIENTED_EDGE('',*,*,#599,.T.);
#313=ORIENTED_EDGE('',*,*,#600,.F.);
#314=ORIENTED_EDGE('',*,*,#601,.F.);
#315=ORIENTED_EDGE('',*,*,#602,.F.);
#316=ORIENTED_EDGE('',*,*,#603,.T.);
#317=ORIENTED_EDGE('',*,*,#604,.F.);
#318=ORIENTED_EDGE('',*,*,#605,.T.);
#319=ORIENTED_EDGE('',*,*,#606,.F.);
#320=ORIENTED_EDGE('',*,*,#607,.T.);
#321=ORIENTED_EDGE('',*,*,#608,.F.);
#322=ORIENTED_EDGE('',*,*,#609,.F.);
#323=ORIENTED_EDGE('',*,*,#610,.F.);
#324=ORIENTED_EDGE('',*,*,#611,.F.);
#325=ORIENTED_EDGE('',*,*,#612,.F.);
#326=ORIENTED_EDGE('',*,*,#613,.F.);
#327=ORIENTED_EDGE('',*,*,#614,.T.);
#328=ORIENTED_EDGE('',*,*,#615,.F.);
#329=ORIENTED_EDGE('',*,*,#616,.F.);
#330=ORIENTED_EDGE('',*,*,#617,.F.);
#331=ORIENTED_EDGE('',*,*,#618,.F.);
#332=ORIENTED_EDGE('',*,*,#619,.F.);
#333=ORIENTED_EDGE('',*,*,#620,.F.);
#334=ORIENTED_EDGE('',*,*,#621,.F.);
#335=ORIENTED_EDGE('',*,*,#622,.F.);
#336=ORIENTED_EDGE('',*,*,#623,.F.);
#337=ORIENTED_EDGE('',*,*,#624,.F.);
#338=ORIENTED_EDGE('',*,*,#582,.F.);
#339=ORIENTED_EDGE('',*,*,#625,.T.);
#340=ORIENTED_EDGE('',*,*,#626,.F.);
#341=ORIENTED_EDGE('',*,*,#627,.F.);
#342=ORIENTED_EDGE('',*,*,#628,.F.);
#343=ORIENTED_EDGE('',*,*,#629,.T.);
#344=ORIENTED_EDGE('',*,*,#630,.T.);
#345=ORIENTED_EDGE('',*,*,#631,.F.);
#346=ORIENTED_EDGE('',*,*,#632,.T.);
#347=ORIENTED_EDGE('',*,*,#630,.F.);
#348=ORIENTED_EDGE('',*,*,#584,.T.);
#349=ORIENTED_EDGE('',*,*,#632,.F.);
#350=ORIENTED_EDGE('',*,*,#633,.F.);
#351=ORIENTED_EDGE('',*,*,#634,.F.);
#352=ORIENTED_EDGE('',*,*,#635,.F.);
#353=ORIENTED_EDGE('',*,*,#636,.F.);
#354=ORIENTED_EDGE('',*,*,#637,.F.);
#355=ORIENTED_EDGE('',*,*,#638,.F.);
#356=ORIENTED_EDGE('',*,*,#639,.T.);
#357=ORIENTED_EDGE('',*,*,#639,.F.);
#358=ORIENTED_EDGE('',*,*,#590,.F.);
#359=ORIENTED_EDGE('',*,*,#640,.F.);
#360=ORIENTED_EDGE('',*,*,#641,.F.);
#361=ORIENTED_EDGE('',*,*,#642,.F.);
#362=ORIENTED_EDGE('',*,*,#643,.F.);
#363=ORIENTED_EDGE('',*,*,#644,.F.);
#364=ORIENTED_EDGE('',*,*,#645,.F.);
#365=ORIENTED_EDGE('',*,*,#631,.T.);
#366=ORIENTED_EDGE('',*,*,#633,.T.);
#367=ORIENTED_EDGE('',*,*,#646,.T.);
#368=ORIENTED_EDGE('',*,*,#640,.T.);
#369=ORIENTED_EDGE('',*,*,#647,.F.);
#370=ORIENTED_EDGE('',*,*,#638,.T.);
#371=ORIENTED_EDGE('',*,*,#648,.T.);
#372=ORIENTED_EDGE('',*,*,#641,.T.);
#373=ORIENTED_EDGE('',*,*,#646,.F.);
#374=ORIENTED_EDGE('',*,*,#637,.T.);
#375=ORIENTED_EDGE('',*,*,#649,.T.);
#376=ORIENTED_EDGE('',*,*,#642,.T.);
#377=ORIENTED_EDGE('',*,*,#648,.F.);
#378=ORIENTED_EDGE('',*,*,#636,.T.);
#379=ORIENTED_EDGE('',*,*,#650,.T.);
#380=ORIENTED_EDGE('',*,*,#643,.T.);
#381=ORIENTED_EDGE('',*,*,#649,.F.);
#382=ORIENTED_EDGE('',*,*,#635,.T.);
#383=ORIENTED_EDGE('',*,*,#651,.T.);
#384=ORIENTED_EDGE('',*,*,#644,.T.);
#385=ORIENTED_EDGE('',*,*,#650,.F.);
#386=ORIENTED_EDGE('',*,*,#634,.T.);
#387=ORIENTED_EDGE('',*,*,#647,.T.);
#388=ORIENTED_EDGE('',*,*,#645,.T.);
#389=ORIENTED_EDGE('',*,*,#651,.F.);
#390=ORIENTED_EDGE('',*,*,#591,.T.);
#391=ORIENTED_EDGE('',*,*,#652,.F.);
#392=ORIENTED_EDGE('',*,*,#653,.T.);
#393=ORIENTED_EDGE('',*,*,#654,.T.);
#394=ORIENTED_EDGE('',*,*,#593,.T.);
#395=ORIENTED_EDGE('',*,*,#655,.F.);
#396=ORIENTED_EDGE('',*,*,#656,.T.);
#397=ORIENTED_EDGE('',*,*,#657,.T.);
#398=ORIENTED_EDGE('',*,*,#654,.F.);
#399=ORIENTED_EDGE('',*,*,#658,.T.);
#400=ORIENTED_EDGE('',*,*,#655,.T.);
#401=ORIENTED_EDGE('',*,*,#592,.T.);
#402=ORIENTED_EDGE('',*,*,#657,.F.);
#403=ORIENTED_EDGE('',*,*,#659,.T.);
#404=ORIENTED_EDGE('',*,*,#652,.T.);
#405=ORIENTED_EDGE('',*,*,#594,.T.);
#406=ORIENTED_EDGE('',*,*,#659,.F.);
#407=ORIENTED_EDGE('',*,*,#656,.F.);
#408=ORIENTED_EDGE('',*,*,#658,.F.);
#409=ORIENTED_EDGE('',*,*,#653,.F.);
#410=ORIENTED_EDGE('',*,*,#598,.T.);
#411=ORIENTED_EDGE('',*,*,#660,.F.);
#412=ORIENTED_EDGE('',*,*,#661,.T.);
#413=ORIENTED_EDGE('',*,*,#662,.T.);
#414=ORIENTED_EDGE('',*,*,#663,.T.);
#415=ORIENTED_EDGE('',*,*,#664,.T.);
#416=ORIENTED_EDGE('',*,*,#595,.T.);
#417=ORIENTED_EDGE('',*,*,#665,.F.);
#418=ORIENTED_EDGE('',*,*,#597,.T.);
#419=ORIENTED_EDGE('',*,*,#666,.T.);
#420=ORIENTED_EDGE('',*,*,#667,.T.);
#421=ORIENTED_EDGE('',*,*,#660,.T.);
#422=ORIENTED_EDGE('',*,*,#662,.F.);
#423=ORIENTED_EDGE('',*,*,#668,.T.);
#424=ORIENTED_EDGE('',*,*,#665,.T.);
#425=ORIENTED_EDGE('',*,*,#599,.F.);
#426=ORIENTED_EDGE('',*,*,#667,.F.);
#427=ORIENTED_EDGE('',*,*,#669,.T.);
#428=ORIENTED_EDGE('',*,*,#663,.F.);
#429=ORIENTED_EDGE('',*,*,#668,.F.);
#430=ORIENTED_EDGE('',*,*,#661,.F.);
#431=ORIENTED_EDGE('',*,*,#600,.T.);
#432=ORIENTED_EDGE('',*,*,#670,.F.);
#433=ORIENTED_EDGE('',*,*,#671,.T.);
#434=ORIENTED_EDGE('',*,*,#672,.T.);
#435=ORIENTED_EDGE('',*,*,#602,.T.);
#436=ORIENTED_EDGE('',*,*,#673,.F.);
#437=ORIENTED_EDGE('',*,*,#674,.T.);
#438=ORIENTED_EDGE('',*,*,#675,.T.);
#439=ORIENTED_EDGE('',*,*,#672,.F.);
#440=ORIENTED_EDGE('',*,*,#676,.T.);
#441=ORIENTED_EDGE('',*,*,#673,.T.);
#442=ORIENTED_EDGE('',*,*,#601,.T.);
#443=ORIENTED_EDGE('',*,*,#675,.F.);
#444=ORIENTED_EDGE('',*,*,#677,.T.);
#445=ORIENTED_EDGE('',*,*,#670,.T.);
#446=ORIENTED_EDGE('',*,*,#603,.F.);
#447=ORIENTED_EDGE('',*,*,#677,.F.);
#448=ORIENTED_EDGE('',*,*,#674,.F.);
#449=ORIENTED_EDGE('',*,*,#676,.F.);
#450=ORIENTED_EDGE('',*,*,#671,.F.);
#451=ORIENTED_EDGE('',*,*,#606,.T.);
#452=ORIENTED_EDGE('',*,*,#678,.F.);
#453=ORIENTED_EDGE('',*,*,#679,.T.);
#454=ORIENTED_EDGE('',*,*,#680,.T.);
#455=ORIENTED_EDGE('',*,*,#604,.T.);
#456=ORIENTED_EDGE('',*,*,#681,.F.);
#457=ORIENTED_EDGE('',*,*,#682,.T.);
#458=ORIENTED_EDGE('',*,*,#683,.T.);
#459=ORIENTED_EDGE('',*,*,#683,.F.);
#460=ORIENTED_EDGE('',*,*,#684,.T.);
#461=ORIENTED_EDGE('',*,*,#678,.T.);
#462=ORIENTED_EDGE('',*,*,#605,.F.);
#463=ORIENTED_EDGE('',*,*,#680,.F.);
#464=ORIENTED_EDGE('',*,*,#685,.T.);
#465=ORIENTED_EDGE('',*,*,#681,.T.);
#466=ORIENTED_EDGE('',*,*,#607,.F.);
#467=ORIENTED_EDGE('',*,*,#685,.F.);
#468=ORIENTED_EDGE('',*,*,#679,.F.);
#469=ORIENTED_EDGE('',*,*,#684,.F.);
#470=ORIENTED_EDGE('',*,*,#682,.F.);
#471=ORIENTED_EDGE('',*,*,#608,.T.);
#472=ORIENTED_EDGE('',*,*,#686,.F.);
#473=ORIENTED_EDGE('',*,*,#687,.T.);
#474=ORIENTED_EDGE('',*,*,#688,.T.);
#475=ORIENTED_EDGE('',*,*,#610,.T.);
#476=ORIENTED_EDGE('',*,*,#689,.F.);
#477=ORIENTED_EDGE('',*,*,#690,.T.);
#478=ORIENTED_EDGE('',*,*,#691,.T.);
#479=ORIENTED_EDGE('',*,*,#688,.F.);
#480=ORIENTED_EDGE('',*,*,#692,.T.);
#481=ORIENTED_EDGE('',*,*,#689,.T.);
#482=ORIENTED_EDGE('',*,*,#609,.T.);
#483=ORIENTED_EDGE('',*,*,#691,.F.);
#484=ORIENTED_EDGE('',*,*,#693,.T.);
#485=ORIENTED_EDGE('',*,*,#686,.T.);
#486=ORIENTED_EDGE('',*,*,#611,.T.);
#487=ORIENTED_EDGE('',*,*,#693,.F.);
#488=ORIENTED_EDGE('',*,*,#690,.F.);
#489=ORIENTED_EDGE('',*,*,#692,.F.);
#490=ORIENTED_EDGE('',*,*,#687,.F.);
#491=ORIENTED_EDGE('',*,*,#612,.T.);
#492=ORIENTED_EDGE('',*,*,#694,.F.);
#493=ORIENTED_EDGE('',*,*,#695,.T.);
#494=ORIENTED_EDGE('',*,*,#696,.T.);
#495=ORIENTED_EDGE('',*,*,#615,.T.);
#496=ORIENTED_EDGE('',*,*,#697,.T.);
#497=ORIENTED_EDGE('',*,*,#698,.T.);
#498=ORIENTED_EDGE('',*,*,#699,.T.);
#499=ORIENTED_EDGE('',*,*,#700,.T.);
#500=ORIENTED_EDGE('',*,*,#701,.T.);
#501=ORIENTED_EDGE('',*,*,#613,.T.);
#502=ORIENTED_EDGE('',*,*,#696,.F.);
#503=ORIENTED_EDGE('',*,*,#699,.F.);
#504=ORIENTED_EDGE('',*,*,#702,.T.);
#505=ORIENTED_EDGE('',*,*,#694,.T.);
#506=ORIENTED_EDGE('',*,*,#616,.T.);
#507=ORIENTED_EDGE('',*,*,#698,.F.);
#508=ORIENTED_EDGE('',*,*,#703,.T.);
#509=ORIENTED_EDGE('',*,*,#700,.F.);
#510=ORIENTED_EDGE('',*,*,#695,.F.);
#511=ORIENTED_EDGE('',*,*,#702,.F.);
#512=ORIENTED_EDGE('',*,*,#617,.T.);
#513=ORIENTED_EDGE('',*,*,#704,.F.);
#514=ORIENTED_EDGE('',*,*,#705,.T.);
#515=ORIENTED_EDGE('',*,*,#706,.T.);
#516=ORIENTED_EDGE('',*,*,#619,.T.);
#517=ORIENTED_EDGE('',*,*,#707,.F.);
#518=ORIENTED_EDGE('',*,*,#708,.T.);
#519=ORIENTED_EDGE('',*,*,#709,.T.);
#520=ORIENTED_EDGE('',*,*,#706,.F.);
#521=ORIENTED_EDGE('',*,*,#710,.T.);
#522=ORIENTED_EDGE('',*,*,#707,.T.);
#523=ORIENTED_EDGE('',*,*,#618,.T.);
#524=ORIENTED_EDGE('',*,*,#709,.F.);
#525=ORIENTED_EDGE('',*,*,#711,.T.);
#526=ORIENTED_EDGE('',*,*,#704,.T.);
#527=ORIENTED_EDGE('',*,*,#620,.T.);
#528=ORIENTED_EDGE('',*,*,#711,.F.);
#529=ORIENTED_EDGE('',*,*,#708,.F.);
#530=ORIENTED_EDGE('',*,*,#710,.F.);
#531=ORIENTED_EDGE('',*,*,#705,.F.);
#532=ORIENTED_EDGE('',*,*,#621,.T.);
#533=ORIENTED_EDGE('',*,*,#712,.F.);
#534=ORIENTED_EDGE('',*,*,#713,.T.);
#535=ORIENTED_EDGE('',*,*,#714,.T.);
#536=ORIENTED_EDGE('',*,*,#623,.T.);
#537=ORIENTED_EDGE('',*,*,#715,.F.);
#538=ORIENTED_EDGE('',*,*,#716,.T.);
#539=ORIENTED_EDGE('',*,*,#717,.T.);
#540=ORIENTED_EDGE('',*,*,#714,.F.);
#541=ORIENTED_EDGE('',*,*,#718,.T.);
#542=ORIENTED_EDGE('',*,*,#715,.T.);
#543=ORIENTED_EDGE('',*,*,#622,.T.);
#544=ORIENTED_EDGE('',*,*,#717,.F.);
#545=ORIENTED_EDGE('',*,*,#719,.T.);
#546=ORIENTED_EDGE('',*,*,#712,.T.);
#547=ORIENTED_EDGE('',*,*,#624,.T.);
#548=ORIENTED_EDGE('',*,*,#719,.F.);
#549=ORIENTED_EDGE('',*,*,#716,.F.);
#550=ORIENTED_EDGE('',*,*,#718,.F.);
#551=ORIENTED_EDGE('',*,*,#713,.F.);
#552=ORIENTED_EDGE('',*,*,#703,.F.);
#553=ORIENTED_EDGE('',*,*,#697,.F.);
#554=ORIENTED_EDGE('',*,*,#614,.F.);
#555=ORIENTED_EDGE('',*,*,#701,.F.);
#556=ORIENTED_EDGE('',*,*,#669,.F.);
#557=ORIENTED_EDGE('',*,*,#666,.F.);
#558=ORIENTED_EDGE('',*,*,#596,.F.);
#559=ORIENTED_EDGE('',*,*,#664,.F.);
#560=ORIENTED_EDGE('',*,*,#720,.T.);
#561=ORIENTED_EDGE('',*,*,#627,.T.);
#562=ORIENTED_EDGE('',*,*,#721,.F.);
#563=ORIENTED_EDGE('',*,*,#589,.F.);
#564=ORIENTED_EDGE('',*,*,#626,.T.);
#565=ORIENTED_EDGE('',*,*,#722,.T.);
#566=ORIENTED_EDGE('',*,*,#585,.F.);
#567=ORIENTED_EDGE('',*,*,#721,.T.);
#568=ORIENTED_EDGE('',*,*,#588,.F.);
#569=ORIENTED_EDGE('',*,*,#723,.T.);
#570=ORIENTED_EDGE('',*,*,#628,.T.);
#571=ORIENTED_EDGE('',*,*,#720,.F.);
#572=ORIENTED_EDGE('',*,*,#625,.F.);
#573=ORIENTED_EDGE('',*,*,#581,.F.);
#574=ORIENTED_EDGE('',*,*,#586,.F.);
#575=ORIENTED_EDGE('',*,*,#722,.F.);
#576=ORIENTED_EDGE('',*,*,#587,.F.);
#577=ORIENTED_EDGE('',*,*,#583,.F.);
#578=ORIENTED_EDGE('',*,*,#629,.F.);
#579=ORIENTED_EDGE('',*,*,#723,.F.);
#580=EDGE_CURVE('',#724,#725,#822,.T.);
#581=EDGE_CURVE('',#724,#726,#92,.T.);
#582=EDGE_CURVE('',#726,#727,#823,.T.);
#583=EDGE_CURVE('',#727,#725,#93,.F.);
#584=EDGE_CURVE('',#728,#728,#824,.T.);
#585=EDGE_CURVE('',#729,#730,#94,.T.);
#586=EDGE_CURVE('',#730,#724,#95,.T.);
#587=EDGE_CURVE('',#725,#731,#96,.F.);
#588=EDGE_CURVE('',#731,#732,#97,.T.);
#589=EDGE_CURVE('',#732,#729,#98,.T.);
#590=EDGE_CURVE('',#733,#733,#825,.T.);
#591=EDGE_CURVE('',#734,#735,#826,.T.);
#592=EDGE_CURVE('',#736,#734,#99,.F.);
#593=EDGE_CURVE('',#737,#736,#827,.F.);
#594=EDGE_CURVE('',#735,#737,#100,.F.);
#595=EDGE_CURVE('',#738,#739,#828,.F.);
#596=EDGE_CURVE('',#738,#740,#829,.T.);
#597=EDGE_CURVE('',#741,#740,#101,.F.);
#598=EDGE_CURVE('',#742,#741,#830,.T.);
#599=EDGE_CURVE('',#742,#739,#102,.T.);
#600=EDGE_CURVE('',#743,#744,#831,.T.);
#601=EDGE_CURVE('',#745,#743,#103,.F.);
#602=EDGE_CURVE('',#746,#745,#832,.F.);
#603=EDGE_CURVE('',#746,#744,#104,.T.);
#604=EDGE_CURVE('',#747,#748,#833,.T.);
#605=EDGE_CURVE('',#747,#749,#105,.T.);
#606=EDGE_CURVE('',#750,#749,#834,.F.);
#607=EDGE_CURVE('',#750,#748,#106,.T.);
#608=EDGE_CURVE('',#751,#752,#835,.T.);
#609=EDGE_CURVE('',#753,#751,#107,.F.);
#610=EDGE_CURVE('',#754,#753,#836,.F.);
#611=EDGE_CURVE('',#752,#754,#108,.F.);
#612=EDGE_CURVE('',#755,#756,#837,.T.);
#613=EDGE_CURVE('',#757,#755,#109,.F.);
#614=EDGE_CURVE('',#757,#758,#838,.T.);
#615=EDGE_CURVE('',#759,#758,#839,.F.);
#616=EDGE_CURVE('',#756,#759,#110,.F.);
#617=EDGE_CURVE('',#760,#761,#840,.T.);
#618=EDGE_CURVE('',#762,#760,#111,.F.);
#619=EDGE_CURVE('',#763,#762,#841,.F.);
#620=EDGE_CURVE('',#761,#763,#112,.F.);
#621=EDGE_CURVE('',#764,#765,#842,.T.);
#622=EDGE_CURVE('',#766,#764,#113,.F.);
#623=EDGE_CURVE('',#767,#766,#843,.F.);
#624=EDGE_CURVE('',#765,#767,#114,.F.);
#625=EDGE_CURVE('',#726,#768,#115,.T.);
#626=EDGE_CURVE('',#769,#768,#116,.T.);
#627=EDGE_CURVE('',#770,#769,#117,.T.);
#628=EDGE_CURVE('',#771,#770,#118,.T.);
#629=EDGE_CURVE('',#771,#727,#119,.F.);
#630=EDGE_CURVE('',#772,#772,#844,.F.);
#631=EDGE_CURVE('',#773,#773,#845,.F.);
#632=EDGE_CURVE('',#774,#774,#846,.F.);
#633=EDGE_CURVE('',#775,#776,#120,.T.);
#634=EDGE_CURVE('',#777,#775,#121,.T.);
#635=EDGE_CURVE('',#778,#777,#122,.T.);
#636=EDGE_CURVE('',#779,#778,#123,.T.);
#637=EDGE_CURVE('',#780,#779,#124,.T.);
#638=EDGE_CURVE('',#776,#780,#125,.T.);
#639=EDGE_CURVE('',#781,#781,#847,.F.);
#640=EDGE_CURVE('',#782,#783,#126,.F.);
#641=EDGE_CURVE('',#784,#782,#127,.F.);
#642=EDGE_CURVE('',#785,#784,#128,.F.);
#643=EDGE_CURVE('',#786,#785,#129,.F.);
#644=EDGE_CURVE('',#787,#786,#130,.F.);
#645=EDGE_CURVE('',#783,#787,#131,.F.);
#646=EDGE_CURVE('',#776,#782,#132,.F.);
#647=EDGE_CURVE('',#775,#783,#133,.F.);
#648=EDGE_CURVE('',#780,#784,#134,.F.);
#649=EDGE_CURVE('',#779,#785,#135,.F.);
#650=EDGE_CURVE('',#778,#786,#136,.F.);
#651=EDGE_CURVE('',#777,#787,#137,.F.);
#652=EDGE_CURVE('',#788,#735,#138,.F.);
#653=EDGE_CURVE('',#788,#789,#848,.F.);
#654=EDGE_CURVE('',#789,#734,#139,.F.);
#655=EDGE_CURVE('',#790,#736,#140,.F.);
#656=EDGE_CURVE('',#790,#791,#849,.T.);
#657=EDGE_CURVE('',#791,#737,#141,.F.);
#658=EDGE_CURVE('',#789,#790,#142,.T.);
#659=EDGE_CURVE('',#791,#788,#143,.T.);
#660=EDGE_CURVE('',#792,#741,#144,.F.);
#661=EDGE_CURVE('',#792,#793,#850,.F.);
#662=EDGE_CURVE('',#793,#742,#145,.F.);
#663=EDGE_CURVE('',#794,#795,#851,.T.);
#664=EDGE_CURVE('',#795,#738,#146,.F.);
#665=EDGE_CURVE('',#794,#739,#147,.F.);
#666=EDGE_CURVE('',#740,#796,#148,.T.);
#667=EDGE_CURVE('',#796,#792,#149,.T.);
#668=EDGE_CURVE('',#793,#794,#150,.T.);
#669=EDGE_CURVE('',#796,#795,#852,.F.);
#670=EDGE_CURVE('',#797,#744,#151,.F.);
#671=EDGE_CURVE('',#797,#798,#853,.F.);
#672=EDGE_CURVE('',#798,#743,#152,.F.);
#673=EDGE_CURVE('',#799,#745,#153,.F.);
#674=EDGE_CURVE('',#799,#800,#854,.T.);
#675=EDGE_CURVE('',#800,#746,#154,.F.);
#676=EDGE_CURVE('',#798,#799,#155,.T.);
#677=EDGE_CURVE('',#800,#797,#156,.T.);
#678=EDGE_CURVE('',#801,#749,#157,.F.);
#679=EDGE_CURVE('',#801,#802,#855,.T.);
#680=EDGE_CURVE('',#802,#750,#158,.F.);
#681=EDGE_CURVE('',#803,#748,#159,.F.);
#682=EDGE_CURVE('',#803,#804,#856,.F.);
#683=EDGE_CURVE('',#804,#747,#160,.F.);
#684=EDGE_CURVE('',#804,#801,#161,.T.);
#685=EDGE_CURVE('',#802,#803,#162,.T.);
#686=EDGE_CURVE('',#805,#752,#163,.F.);
#687=EDGE_CURVE('',#805,#806,#857,.F.);
#688=EDGE_CURVE('',#806,#751,#164,.F.);
#689=EDGE_CURVE('',#807,#753,#165,.F.);
#690=EDGE_CURVE('',#807,#808,#858,.T.);
#691=EDGE_CURVE('',#808,#754,#166,.F.);
#692=EDGE_CURVE('',#806,#807,#167,.T.);
#693=EDGE_CURVE('',#808,#805,#168,.T.);
#694=EDGE_CURVE('',#809,#756,#169,.F.);
#695=EDGE_CURVE('',#809,#810,#859,.F.);
#696=EDGE_CURVE('',#810,#755,#170,.F.);
#697=EDGE_CURVE('',#758,#811,#171,.T.);
#698=EDGE_CURVE('',#811,#812,#860,.T.);
#699=EDGE_CURVE('',#812,#759,#172,.F.);
#700=EDGE_CURVE('',#810,#813,#173,.T.);
#701=EDGE_CURVE('',#813,#757,#174,.F.);
#702=EDGE_CURVE('',#812,#809,#175,.T.);
#703=EDGE_CURVE('',#811,#813,#861,.F.);
#704=EDGE_CURVE('',#814,#761,#176,.F.);
#705=EDGE_CURVE('',#814,#815,#862,.F.);
#706=EDGE_CURVE('',#815,#760,#177,.F.);
#707=EDGE_CURVE('',#816,#762,#178,.F.);
#708=EDGE_CURVE('',#816,#817,#863,.T.);
#709=EDGE_CURVE('',#817,#763,#179,.F.);
#710=EDGE_CURVE('',#815,#816,#180,.T.);
#711=EDGE_CURVE('',#817,#814,#181,.T.);
#712=EDGE_CURVE('',#818,#765,#182,.F.);
#713=EDGE_CURVE('',#818,#819,#864,.F.);
#714=EDGE_CURVE('',#819,#764,#183,.F.);
#715=EDGE_CURVE('',#820,#766,#184,.F.);
#716=EDGE_CURVE('',#820,#821,#865,.T.);
#717=EDGE_CURVE('',#821,#767,#185,.F.);
#718=EDGE_CURVE('',#819,#820,#186,.T.);
#719=EDGE_CURVE('',#821,#818,#187,.T.);
#720=EDGE_CURVE('',#732,#770,#188,.T.);
#721=EDGE_CURVE('',#729,#769,#189,.T.);
#722=EDGE_CURVE('',#768,#730,#190,.T.);
#723=EDGE_CURVE('',#731,#771,#191,.T.);
#724=VERTEX_POINT('',#1574);
#725=VERTEX_POINT('',#1575);
#726=VERTEX_POINT('',#1577);
#727=VERTEX_POINT('',#1579);
#728=VERTEX_POINT('',#1583);
#729=VERTEX_POINT('',#1585);
#730=VERTEX_POINT('',#1586);
#731=VERTEX_POINT('',#1589);
#732=VERTEX_POINT('',#1591);
#733=VERTEX_POINT('',#1595);
#734=VERTEX_POINT('',#1597);
#735=VERTEX_POINT('',#1598);
#736=VERTEX_POINT('',#1600);
#737=VERTEX_POINT('',#1602);
#738=VERTEX_POINT('',#1605);
#739=VERTEX_POINT('',#1606);
#740=VERTEX_POINT('',#1608);
#741=VERTEX_POINT('',#1610);
#742=VERTEX_POINT('',#1612);
#743=VERTEX_POINT('',#1615);
#744=VERTEX_POINT('',#1616);
#745=VERTEX_POINT('',#1618);
#746=VERTEX_POINT('',#1620);
#747=VERTEX_POINT('',#1623);
#748=VERTEX_POINT('',#1624);
#749=VERTEX_POINT('',#1626);
#750=VERTEX_POINT('',#1628);
#751=VERTEX_POINT('',#1631);
#752=VERTEX_POINT('',#1632);
#753=VERTEX_POINT('',#1634);
#754=VERTEX_POINT('',#1636);
#755=VERTEX_POINT('',#1639);
#756=VERTEX_POINT('',#1640);
#757=VERTEX_POINT('',#1642);
#758=VERTEX_POINT('',#1644);
#759=VERTEX_POINT('',#1646);
#760=VERTEX_POINT('',#1649);
#761=VERTEX_POINT('',#1650);
#762=VERTEX_POINT('',#1652);
#763=VERTEX_POINT('',#1654);
#764=VERTEX_POINT('',#1657);
#765=VERTEX_POINT('',#1658);
#766=VERTEX_POINT('',#1660);
#767=VERTEX_POINT('',#1662);
#768=VERTEX_POINT('',#1665);
#769=VERTEX_POINT('',#1667);
#770=VERTEX_POINT('',#1669);
#771=VERTEX_POINT('',#1671);
#772=VERTEX_POINT('',#1675);
#773=VERTEX_POINT('',#1677);
#774=VERTEX_POINT('',#1680);
#775=VERTEX_POINT('',#1684);
#776=VERTEX_POINT('',#1685);
#777=VERTEX_POINT('',#1687);
#778=VERTEX_POINT('',#1689);
#779=VERTEX_POINT('',#1691);
#780=VERTEX_POINT('',#1693);
#781=VERTEX_POINT('',#1696);
#782=VERTEX_POINT('',#1700);
#783=VERTEX_POINT('',#1701);
#784=VERTEX_POINT('',#1703);
#785=VERTEX_POINT('',#1705);
#786=VERTEX_POINT('',#1707);
#787=VERTEX_POINT('',#1709);
#788=VERTEX_POINT('',#1725);
#789=VERTEX_POINT('',#1727);
#790=VERTEX_POINT('',#1731);
#791=VERTEX_POINT('',#1733);
#792=VERTEX_POINT('',#1742);
#793=VERTEX_POINT('',#1744);
#794=VERTEX_POINT('',#1748);
#795=VERTEX_POINT('',#1749);
#796=VERTEX_POINT('',#1754);
#797=VERTEX_POINT('',#1762);
#798=VERTEX_POINT('',#1764);
#799=VERTEX_POINT('',#1768);
#800=VERTEX_POINT('',#1770);
#801=VERTEX_POINT('',#1779);
#802=VERTEX_POINT('',#1781);
#803=VERTEX_POINT('',#1785);
#804=VERTEX_POINT('',#1787);
#805=VERTEX_POINT('',#1796);
#806=VERTEX_POINT('',#1798);
#807=VERTEX_POINT('',#1802);
#808=VERTEX_POINT('',#1804);
#809=VERTEX_POINT('',#1813);
#810=VERTEX_POINT('',#1815);
#811=VERTEX_POINT('',#1819);
#812=VERTEX_POINT('',#1821);
#813=VERTEX_POINT('',#1825);
#814=VERTEX_POINT('',#1833);
#815=VERTEX_POINT('',#1835);
#816=VERTEX_POINT('',#1839);
#817=VERTEX_POINT('',#1841);
#818=VERTEX_POINT('',#1850);
#819=VERTEX_POINT('',#1852);
#820=VERTEX_POINT('',#1856);
#821=VERTEX_POINT('',#1858);
#822=CIRCLE('',#1120,75.064381280342);
#823=CIRCLE('',#1121,75.064381280342);
#824=CIRCLE('',#1123,7.6);
#825=CIRCLE('',#1125,9.1);
#826=CIRCLE('',#1126,14.1);
#827=CIRCLE('',#1127,70.064381280342);
#828=CIRCLE('',#1128,70.064381280342);
#829=CIRCLE('',#1129,7.);
#830=CIRCLE('',#1130,14.1);
#831=CIRCLE('',#1131,14.1);
#832=CIRCLE('',#1132,70.064381280342);
#833=CIRCLE('',#1133,14.1);
#834=CIRCLE('',#1134,70.064381280342);
#835=CIRCLE('',#1135,14.1);
#836=CIRCLE('',#1136,70.064381280342);
#837=CIRCLE('',#1137,14.1);
#838=CIRCLE('',#1138,7.);
#839=CIRCLE('',#1139,70.064381280342);
#840=CIRCLE('',#1140,14.1);
#841=CIRCLE('',#1141,70.064381280342);
#842=CIRCLE('',#1142,14.1);
#843=CIRCLE('',#1143,70.064381280342);
#844=CIRCLE('',#1145,3.9);
#845=CIRCLE('',#1146,3.9);
#846=CIRCLE('',#1148,7.6);
#847=CIRCLE('',#1151,9.09999999999999);
#848=CIRCLE('',#1161,14.1);
#849=CIRCLE('',#1163,70.064381280342);
#850=CIRCLE('',#1168,14.1);
#851=CIRCLE('',#1170,70.064381280342);
#852=CIRCLE('',#1174,7.);
#853=CIRCLE('',#1176,14.1);
#854=CIRCLE('',#1178,70.064381280342);
#855=CIRCLE('',#1183,70.064381280342);
#856=CIRCLE('',#1185,14.1);
#857=CIRCLE('',#1190,14.1);
#858=CIRCLE('',#1192,70.064381280342);
#859=CIRCLE('',#1197,14.1);
#860=CIRCLE('',#1199,70.064381280342);
#861=CIRCLE('',#1203,7.);
#862=CIRCLE('',#1205,14.1);
#863=CIRCLE('',#1207,70.064381280342);
#864=CIRCLE('',#1212,14.1);
#865=CIRCLE('',#1214,70.064381280342);
#866=EDGE_LOOP('',(#292,#293,#294,#295));
#867=EDGE_LOOP('',(#296));
#868=EDGE_LOOP('',(#297,#298,#299,#300,#301,#302));
#869=EDGE_LOOP('',(#303));
#870=EDGE_LOOP('',(#304,#305,#306,#307));
#871=EDGE_LOOP('',(#308,#309,#310,#311,#312));
#872=EDGE_LOOP('',(#313,#314,#315,#316));
#873=EDGE_LOOP('',(#317,#318,#319,#320));
#874=EDGE_LOOP('',(#321,#322,#323,#324));
#875=EDGE_LOOP('',(#325,#326,#327,#328,#329));
#876=EDGE_LOOP('',(#330,#331,#332,#333));
#877=EDGE_LOOP('',(#334,#335,#336,#337));
#878=EDGE_LOOP('',(#338,#339,#340,#341,#342,#343));
#879=EDGE_LOOP('',(#344));
#880=EDGE_LOOP('',(#345));
#881=EDGE_LOOP('',(#346));
#882=EDGE_LOOP('',(#347));
#883=EDGE_LOOP('',(#348));
#884=EDGE_LOOP('',(#349));
#885=EDGE_LOOP('',(#350,#351,#352,#353,#354,#355));
#886=EDGE_LOOP('',(#356));
#887=EDGE_LOOP('',(#357));
#888=EDGE_LOOP('',(#358));
#889=EDGE_LOOP('',(#359,#360,#361,#362,#363,#364));
#890=EDGE_LOOP('',(#365));
#891=EDGE_LOOP('',(#366,#367,#368,#369));
#892=EDGE_LOOP('',(#370,#371,#372,#373));
#893=EDGE_LOOP('',(#374,#375,#376,#377));
#894=EDGE_LOOP('',(#378,#379,#380,#381));
#895=EDGE_LOOP('',(#382,#383,#384,#385));
#896=EDGE_LOOP('',(#386,#387,#388,#389));
#897=EDGE_LOOP('',(#390,#391,#392,#393));
#898=EDGE_LOOP('',(#394,#395,#396,#397));
#899=EDGE_LOOP('',(#398,#399,#400,#401));
#900=EDGE_LOOP('',(#402,#403,#404,#405));
#901=EDGE_LOOP('',(#406,#407,#408,#409));
#902=EDGE_LOOP('',(#410,#411,#412,#413));
#903=EDGE_LOOP('',(#414,#415,#416,#417));
#904=EDGE_LOOP('',(#418,#419,#420,#421));
#905=EDGE_LOOP('',(#422,#423,#424,#425));
#906=EDGE_LOOP('',(#426,#427,#428,#429,#430));
#907=EDGE_LOOP('',(#431,#432,#433,#434));
#908=EDGE_LOOP('',(#435,#436,#437,#438));
#909=EDGE_LOOP('',(#439,#440,#441,#442));
#910=EDGE_LOOP('',(#443,#444,#445,#446));
#911=EDGE_LOOP('',(#447,#448,#449,#450));
#912=EDGE_LOOP('',(#451,#452,#453,#454));
#913=EDGE_LOOP('',(#455,#456,#457,#458));
#914=EDGE_LOOP('',(#459,#460,#461,#462));
#915=EDGE_LOOP('',(#463,#464,#465,#466));
#916=EDGE_LOOP('',(#467,#468,#469,#470));
#917=EDGE_LOOP('',(#471,#472,#473,#474));
#918=EDGE_LOOP('',(#475,#476,#477,#478));
#919=EDGE_LOOP('',(#479,#480,#481,#482));
#920=EDGE_LOOP('',(#483,#484,#485,#486));
#921=EDGE_LOOP('',(#487,#488,#489,#490));
#922=EDGE_LOOP('',(#491,#492,#493,#494));
#923=EDGE_LOOP('',(#495,#496,#497,#498));
#924=EDGE_LOOP('',(#499,#500,#501,#502));
#925=EDGE_LOOP('',(#503,#504,#505,#506));
#926=EDGE_LOOP('',(#507,#508,#509,#510,#511));
#927=EDGE_LOOP('',(#512,#513,#514,#515));
#928=EDGE_LOOP('',(#516,#517,#518,#519));
#929=EDGE_LOOP('',(#520,#521,#522,#523));
#930=EDGE_LOOP('',(#524,#525,#526,#527));
#931=EDGE_LOOP('',(#528,#529,#530,#531));
#932=EDGE_LOOP('',(#532,#533,#534,#535));
#933=EDGE_LOOP('',(#536,#537,#538,#539));
#934=EDGE_LOOP('',(#540,#541,#542,#543));
#935=EDGE_LOOP('',(#544,#545,#546,#547));
#936=EDGE_LOOP('',(#548,#549,#550,#551));
#937=EDGE_LOOP('',(#552,#553,#554,#555));
#938=EDGE_LOOP('',(#556,#557,#558,#559));
#939=EDGE_LOOP('',(#560,#561,#562,#563));
#940=EDGE_LOOP('',(#564,#565,#566,#567));
#941=EDGE_LOOP('',(#568,#569,#570,#571));
#942=EDGE_LOOP('',(#572,#573,#574,#575));
#943=EDGE_LOOP('',(#576,#577,#578,#579));
#944=FACE_BOUND('',#866,.T.);
#945=FACE_BOUND('',#867,.T.);
#946=FACE_BOUND('',#868,.T.);
#947=FACE_BOUND('',#869,.T.);
#948=FACE_BOUND('',#870,.T.);
#949=FACE_BOUND('',#871,.T.);
#950=FACE_BOUND('',#872,.T.);
#951=FACE_BOUND('',#873,.T.);
#952=FACE_BOUND('',#874,.T.);
#953=FACE_BOUND('',#875,.T.);
#954=FACE_BOUND('',#876,.T.);
#955=FACE_BOUND('',#877,.T.);
#956=FACE_BOUND('',#878,.T.);
#957=FACE_BOUND('',#879,.T.);
#958=FACE_BOUND('',#880,.T.);
#959=FACE_BOUND('',#881,.T.);
#960=FACE_BOUND('',#882,.T.);
#961=FACE_BOUND('',#883,.T.);
#962=FACE_BOUND('',#884,.T.);
#963=FACE_BOUND('',#885,.T.);
#964=FACE_BOUND('',#886,.T.);
#965=FACE_BOUND('',#887,.T.);
#966=FACE_BOUND('',#888,.T.);
#967=FACE_BOUND('',#889,.T.);
#968=FACE_BOUND('',#890,.T.);
#969=FACE_BOUND('',#891,.T.);
#970=FACE_BOUND('',#892,.T.);
#971=FACE_BOUND('',#893,.T.);
#972=FACE_BOUND('',#894,.T.);
#973=FACE_BOUND('',#895,.T.);
#974=FACE_BOUND('',#896,.T.);
#975=FACE_BOUND('',#897,.T.);
#976=FACE_BOUND('',#898,.T.);
#977=FACE_BOUND('',#899,.T.);
#978=FACE_BOUND('',#900,.T.);
#979=FACE_BOUND('',#901,.T.);
#980=FACE_BOUND('',#902,.T.);
#981=FACE_BOUND('',#903,.T.);
#982=FACE_BOUND('',#904,.T.);
#983=FACE_BOUND('',#905,.T.);
#984=FACE_BOUND('',#906,.T.);
#985=FACE_BOUND('',#907,.T.);
#986=FACE_BOUND('',#908,.T.);
#987=FACE_BOUND('',#909,.T.);
#988=FACE_BOUND('',#910,.T.);
#989=FACE_BOUND('',#911,.T.);
#990=FACE_BOUND('',#912,.T.);
#991=FACE_BOUND('',#913,.T.);
#992=FACE_BOUND('',#914,.T.);
#993=FACE_BOUND('',#915,.T.);
#994=FACE_BOUND('',#916,.T.);
#995=FACE_BOUND('',#917,.T.);
#996=FACE_BOUND('',#918,.T.);
#997=FACE_BOUND('',#919,.T.);
#998=FACE_BOUND('',#920,.T.);
#999=FACE_BOUND('',#921,.T.);
#1000=FACE_BOUND('',#922,.T.);
#1001=FACE_BOUND('',#923,.T.);
#1002=FACE_BOUND('',#924,.T.);
#1003=FACE_BOUND('',#925,.T.);
#1004=FACE_BOUND('',#926,.T.);
#1005=FACE_BOUND('',#927,.T.);
#1006=FACE_BOUND('',#928,.T.);
#1007=FACE_BOUND('',#929,.T.);
#1008=FACE_BOUND('',#930,.T.);
#1009=FACE_BOUND('',#931,.T.);
#1010=FACE_BOUND('',#932,.T.);
#1011=FACE_BOUND('',#933,.T.);
#1012=FACE_BOUND('',#934,.T.);
#1013=FACE_BOUND('',#935,.T.);
#1014=FACE_BOUND('',#936,.T.);
#1015=FACE_BOUND('',#937,.T.);
#1016=FACE_BOUND('',#938,.T.);
#1017=FACE_BOUND('',#939,.T.);
#1018=FACE_BOUND('',#940,.T.);
#1019=FACE_BOUND('',#941,.T.);
#1020=FACE_BOUND('',#942,.T.);
#1021=FACE_BOUND('',#943,.T.);
#1022=CYLINDRICAL_SURFACE('',#1119,75.064381280342);
#1023=CYLINDRICAL_SURFACE('',#1144,3.9);
#1024=CYLINDRICAL_SURFACE('',#1149,7.6);
#1025=CYLINDRICAL_SURFACE('',#1152,9.09999999999999);
#1026=CYLINDRICAL_SURFACE('',#1160,14.1);
#1027=CYLINDRICAL_SURFACE('',#1162,70.064381280342);
#1028=CYLINDRICAL_SURFACE('',#1167,14.1);
#1029=CYLINDRICAL_SURFACE('',#1169,70.064381280342);
#1030=CYLINDRICAL_SURFACE('',#1175,14.1);
#1031=CYLINDRICAL_SURFACE('',#1177,70.064381280342);
#1032=CYLINDRICAL_SURFACE('',#1182,70.064381280342);
#1033=CYLINDRICAL_SURFACE('',#1184,14.1);
#1034=CYLINDRICAL_SURFACE('',#1189,14.1);
#1035=CYLINDRICAL_SURFACE('',#1191,70.064381280342);
#1036=CYLINDRICAL_SURFACE('',#1196,14.1);
#1037=CYLINDRICAL_SURFACE('',#1198,70.064381280342);
#1038=CYLINDRICAL_SURFACE('',#1204,14.1);
#1039=CYLINDRICAL_SURFACE('',#1206,70.064381280342);
#1040=CYLINDRICAL_SURFACE('',#1211,14.1);
#1041=CYLINDRICAL_SURFACE('',#1213,70.064381280342);
#1042=CYLINDRICAL_SURFACE('',#1218,7.);
#1043=CYLINDRICAL_SURFACE('',#1219,7.);
#1044=ADVANCED_FACE('',(#944),#1022,.T.);
#1045=ADVANCED_FACE('',(#945,#946),#52,.T.);
#1046=ADVANCED_FACE('',(#947,#948,#949,#950,#951,#952,#953,#954,#955,#956),
#53,.F.);
#1047=ADVANCED_FACE('',(#957,#958),#1023,.F.);
#1048=ADVANCED_FACE('',(#959,#960),#54,.F.);
#1049=ADVANCED_FACE('',(#961,#962),#1024,.F.);
#1050=ADVANCED_FACE('',(#963,#964),#55,.T.);
#1051=ADVANCED_FACE('',(#965,#966),#1025,.F.);
#1052=ADVANCED_FACE('',(#967,#968),#56,.T.);
#1053=ADVANCED_FACE('',(#969),#57,.F.);
#1054=ADVANCED_FACE('',(#970),#58,.F.);
#1055=ADVANCED_FACE('',(#971),#59,.F.);
#1056=ADVANCED_FACE('',(#972),#60,.F.);
#1057=ADVANCED_FACE('',(#973),#61,.F.);
#1058=ADVANCED_FACE('',(#974),#62,.F.);
#1059=ADVANCED_FACE('',(#975),#1026,.T.);
#1060=ADVANCED_FACE('',(#976),#1027,.F.);
#1061=ADVANCED_FACE('',(#977),#63,.F.);
#1062=ADVANCED_FACE('',(#978),#64,.F.);
#1063=ADVANCED_FACE('',(#979),#65,.F.);
#1064=ADVANCED_FACE('',(#980),#1028,.T.);
#1065=ADVANCED_FACE('',(#981),#1029,.F.);
#1066=ADVANCED_FACE('',(#982),#66,.F.);
#1067=ADVANCED_FACE('',(#983),#67,.F.);
#1068=ADVANCED_FACE('',(#984),#68,.F.);
#1069=ADVANCED_FACE('',(#985),#1030,.T.);
#1070=ADVANCED_FACE('',(#986),#1031,.F.);
#1071=ADVANCED_FACE('',(#987),#69,.F.);
#1072=ADVANCED_FACE('',(#988),#70,.F.);
#1073=ADVANCED_FACE('',(#989),#71,.F.);
#1074=ADVANCED_FACE('',(#990),#1032,.F.);
#1075=ADVANCED_FACE('',(#991),#1033,.T.);
#1076=ADVANCED_FACE('',(#992),#72,.F.);
#1077=ADVANCED_FACE('',(#993),#73,.F.);
#1078=ADVANCED_FACE('',(#994),#74,.F.);
#1079=ADVANCED_FACE('',(#995),#1034,.T.);
#1080=ADVANCED_FACE('',(#996),#1035,.F.);
#1081=ADVANCED_FACE('',(#997),#75,.F.);
#1082=ADVANCED_FACE('',(#998),#76,.F.);
#1083=ADVANCED_FACE('',(#999),#77,.F.);
#1084=ADVANCED_FACE('',(#1000),#1036,.T.);
#1085=ADVANCED_FACE('',(#1001),#1037,.F.);
#1086=ADVANCED_FACE('',(#1002),#78,.F.);
#1087=ADVANCED_FACE('',(#1003),#79,.F.);
#1088=ADVANCED_FACE('',(#1004),#80,.F.);
#1089=ADVANCED_FACE('',(#1005),#1038,.T.);
#1090=ADVANCED_FACE('',(#1006),#1039,.F.);
#1091=ADVANCED_FACE('',(#1007),#81,.F.);
#1092=ADVANCED_FACE('',(#1008),#82,.F.);
#1093=ADVANCED_FACE('',(#1009),#83,.F.);
#1094=ADVANCED_FACE('',(#1010),#1040,.T.);
#1095=ADVANCED_FACE('',(#1011),#1041,.F.);
#1096=ADVANCED_FACE('',(#1012),#84,.F.);
#1097=ADVANCED_FACE('',(#1013),#85,.F.);
#1098=ADVANCED_FACE('',(#1014),#86,.F.);
#1099=ADVANCED_FACE('',(#1015),#1042,.F.);
#1100=ADVANCED_FACE('',(#1016),#1043,.F.);
#1101=ADVANCED_FACE('',(#1017),#87,.T.);
#1102=ADVANCED_FACE('',(#1018),#88,.T.);
#1103=ADVANCED_FACE('',(#1019),#89,.T.);
#1104=ADVANCED_FACE('',(#1020),#90,.T.);
#1105=ADVANCED_FACE('',(#1021),#91,.F.);
#1106=CLOSED_SHELL('',(#1044,#1045,#1046,#1047,#1048,#1049,#1050,#1051,
#1052,#1053,#1054,#1055,#1056,#1057,#1058,#1059,#1060,#1061,#1062,#1063,
#1064,#1065,#1066,#1067,#1068,#1069,#1070,#1071,#1072,#1073,#1074,#1075,
#1076,#1077,#1078,#1079,#1080,#1081,#1082,#1083,#1084,#1085,#1086,#1087,
#1088,#1089,#1090,#1091,#1092,#1093,#1094,#1095,#1096,#1097,#1098,#1099,
#1100,#1101,#1102,#1103,#1104,#1105));
#1107=STYLED_ITEM('',(#1108),#1115);
#1108=PRESENTATION_STYLE_ASSIGNMENT((#1109));
#1109=SURFACE_STYLE_USAGE(.BOTH.,#1110);
#1110=SURFACE_SIDE_STYLE('',(#1111));
#1111=SURFACE_STYLE_FILL_AREA(#1112);
#1112=FILL_AREA_STYLE('',(#1113));
#1113=FILL_AREA_STYLE_COLOUR('',#1114);
#1114=COLOUR_RGB('',0.596063172350652,0.666666666666667,0.686259250782025);
#1115=MANIFOLD_SOLID_BREP('',#1106);
#1116=SHAPE_DEFINITION_REPRESENTATION(#1906,#1117);
#1117=SHAPE_REPRESENTATION('tool_sander',(#1118),#1901);
#1118=AXIS2_PLACEMENT_3D('',#1571,#1241,#1242);
#1119=AXIS2_PLACEMENT_3D('',#1572,#1243,#1244);
#1120=AXIS2_PLACEMENT_3D('',#1573,#1245,#1246);
#1121=AXIS2_PLACEMENT_3D('',#1578,#1248,#1249);
#1122=AXIS2_PLACEMENT_3D('',#1581,#1251,#1252);
#1123=AXIS2_PLACEMENT_3D('',#1582,#1253,#1254);
#1124=AXIS2_PLACEMENT_3D('',#1593,#1260,#1261);
#1125=AXIS2_PLACEMENT_3D('',#1594,#1262,#1263);
#1126=AXIS2_PLACEMENT_3D('',#1596,#1264,#1265);
#1127=AXIS2_PLACEMENT_3D('',#1601,#1267,#1268);
#1128=AXIS2_PLACEMENT_3D('',#1604,#1270,#1271);
#1129=AXIS2_PLACEMENT_3D('',#1607,#1272,#1273);
#1130=AXIS2_PLACEMENT_3D('',#1611,#1275,#1276);
#1131=AXIS2_PLACEMENT_3D('',#1614,#1278,#1279);
#1132=AXIS2_PLACEMENT_3D('',#1619,#1281,#1282);
#1133=AXIS2_PLACEMENT_3D('',#1622,#1284,#1285);
#1134=AXIS2_PLACEMENT_3D('',#1627,#1287,#1288);
#1135=AXIS2_PLACEMENT_3D('',#1630,#1290,#1291);
#1136=AXIS2_PLACEMENT_3D('',#1635,#1293,#1294);
#1137=AXIS2_PLACEMENT_3D('',#1638,#1296,#1297);
#1138=AXIS2_PLACEMENT_3D('',#1643,#1299,#1300);
#1139=AXIS2_PLACEMENT_3D('',#1645,#1301,#1302);
#1140=AXIS2_PLACEMENT_3D('',#1648,#1304,#1305);
#1141=AXIS2_PLACEMENT_3D('',#1653,#1307,#1308);
#1142=AXIS2_PLACEMENT_3D('',#1656,#1310,#1311);
#1143=AXIS2_PLACEMENT_3D('',#1661,#1313,#1314);
#1144=AXIS2_PLACEMENT_3D('',#1673,#1321,#1322);
#1145=AXIS2_PLACEMENT_3D('',#1674,#1323,#1324);
#1146=AXIS2_PLACEMENT_3D('',#1676,#1325,#1326);
#1147=AXIS2_PLACEMENT_3D('',#1678,#1327,#1328);
#1148=AXIS2_PLACEMENT_3D('',#1679,#1329,#1330);
#1149=AXIS2_PLACEMENT_3D('',#1681,#1331,#1332);
#1150=AXIS2_PLACEMENT_3D('',#1682,#1333,#1334);
#1151=AXIS2_PLACEMENT_3D('',#1695,#1341,#1342);
#1152=AXIS2_PLACEMENT_3D('',#1697,#1343,#1344);
#1153=AXIS2_PLACEMENT_3D('',#1698,#1345,#1346);
#1154=AXIS2_PLACEMENT_3D('',#1711,#1353,#1354);
#1155=AXIS2_PLACEMENT_3D('',#1714,#1357,#1358);
#1156=AXIS2_PLACEMENT_3D('',#1716,#1360,#1361);
#1157=AXIS2_PLACEMENT_3D('',#1718,#1363,#1364);
#1158=AXIS2_PLACEMENT_3D('',#1720,#1366,#1367);
#1159=AXIS2_PLACEMENT_3D('',#1722,#1369,#1370);
#1160=AXIS2_PLACEMENT_3D('',#1723,#1371,#1372);
#1161=AXIS2_PLACEMENT_3D('',#1726,#1374,#1375);
#1162=AXIS2_PLACEMENT_3D('',#1729,#1377,#1378);
#1163=AXIS2_PLACEMENT_3D('',#1732,#1380,#1381);
#1164=AXIS2_PLACEMENT_3D('',#1735,#1383,#1384);
#1165=AXIS2_PLACEMENT_3D('',#1737,#1386,#1387);
#1166=AXIS2_PLACEMENT_3D('',#1739,#1389,#1390);
#1167=AXIS2_PLACEMENT_3D('',#1740,#1391,#1392);
#1168=AXIS2_PLACEMENT_3D('',#1743,#1394,#1395);
#1169=AXIS2_PLACEMENT_3D('',#1746,#1397,#1398);
#1170=AXIS2_PLACEMENT_3D('',#1747,#1399,#1400);
#1171=AXIS2_PLACEMENT_3D('',#1752,#1403,#1404);
#1172=AXIS2_PLACEMENT_3D('',#1756,#1407,#1408);
#1173=AXIS2_PLACEMENT_3D('',#1758,#1410,#1411);
#1174=AXIS2_PLACEMENT_3D('',#1759,#1412,#1413);
#1175=AXIS2_PLACEMENT_3D('',#1760,#1414,#1415);
#1176=AXIS2_PLACEMENT_3D('',#1763,#1417,#1418);
#1177=AXIS2_PLACEMENT_3D('',#1766,#1420,#1421);
#1178=AXIS2_PLACEMENT_3D('',#1769,#1423,#1424);
#1179=AXIS2_PLACEMENT_3D('',#1772,#1426,#1427);
#1180=AXIS2_PLACEMENT_3D('',#1774,#1429,#1430);
#1181=AXIS2_PLACEMENT_3D('',#1776,#1432,#1433);
#1182=AXIS2_PLACEMENT_3D('',#1777,#1434,#1435);
#1183=AXIS2_PLACEMENT_3D('',#1780,#1437,#1438);
#1184=AXIS2_PLACEMENT_3D('',#1783,#1440,#1441);
#1185=AXIS2_PLACEMENT_3D('',#1786,#1443,#1444);
#1186=AXIS2_PLACEMENT_3D('',#1789,#1446,#1447);
#1187=AXIS2_PLACEMENT_3D('',#1791,#1449,#1450);
#1188=AXIS2_PLACEMENT_3D('',#1793,#1452,#1453);
#1189=AXIS2_PLACEMENT_3D('',#1794,#1454,#1455);
#1190=AXIS2_PLACEMENT_3D('',#1797,#1457,#1458);
#1191=AXIS2_PLACEMENT_3D('',#1800,#1460,#1461);
#1192=AXIS2_PLACEMENT_3D('',#1803,#1463,#1464);
#1193=AXIS2_PLACEMENT_3D('',#1806,#1466,#1467);
#1194=AXIS2_PLACEMENT_3D('',#1808,#1469,#1470);
#1195=AXIS2_PLACEMENT_3D('',#1810,#1472,#1473);
#1196=AXIS2_PLACEMENT_3D('',#1811,#1474,#1475);
#1197=AXIS2_PLACEMENT_3D('',#1814,#1477,#1478);
#1198=AXIS2_PLACEMENT_3D('',#1817,#1480,#1481);
#1199=AXIS2_PLACEMENT_3D('',#1820,#1483,#1484);
#1200=AXIS2_PLACEMENT_3D('',#1823,#1486,#1487);
#1201=AXIS2_PLACEMENT_3D('',#1827,#1490,#1491);
#1202=AXIS2_PLACEMENT_3D('',#1829,#1493,#1494);
#1203=AXIS2_PLACEMENT_3D('',#1830,#1495,#1496);
#1204=AXIS2_PLACEMENT_3D('',#1831,#1497,#1498);
#1205=AXIS2_PLACEMENT_3D('',#1834,#1500,#1501);
#1206=AXIS2_PLACEMENT_3D('',#1837,#1503,#1504);
#1207=AXIS2_PLACEMENT_3D('',#1840,#1506,#1507);
#1208=AXIS2_PLACEMENT_3D('',#1843,#1509,#1510);
#1209=AXIS2_PLACEMENT_3D('',#1845,#1512,#1513);
#1210=AXIS2_PLACEMENT_3D('',#1847,#1515,#1516);
#1211=AXIS2_PLACEMENT_3D('',#1848,#1517,#1518);
#1212=AXIS2_PLACEMENT_3D('',#1851,#1520,#1521);
#1213=AXIS2_PLACEMENT_3D('',#1854,#1523,#1524);
#1214=AXIS2_PLACEMENT_3D('',#1857,#1526,#1527);
#1215=AXIS2_PLACEMENT_3D('',#1860,#1529,#1530);
#1216=AXIS2_PLACEMENT_3D('',#1862,#1532,#1533);
#1217=AXIS2_PLACEMENT_3D('',#1864,#1535,#1536);
#1218=AXIS2_PLACEMENT_3D('',#1865,#1537,#1538);
#1219=AXIS2_PLACEMENT_3D('',#1866,#1539,#1540);
#1220=AXIS2_PLACEMENT_3D('',#1867,#1541,#1542);
#1221=AXIS2_PLACEMENT_3D('',#1870,#1545,#1546);
#1222=AXIS2_PLACEMENT_3D('',#1872,#1548,#1549);
#1223=AXIS2_PLACEMENT_3D('',#1874,#1551,#1552);
#1224=AXIS2_PLACEMENT_3D('',#1875,#1553,#1554);
#1225=AXIS2_PLACEMENT_3D('',#1876,#1555,#1556);
#1226=AXIS2_PLACEMENT_3D('',#1878,#1555,#1556);
#1227=AXIS2_PLACEMENT_3D('',#1879,#1557,#1558);
#1228=AXIS2_PLACEMENT_3D('',#1881,#1557,#1558);
#1229=AXIS2_PLACEMENT_3D('',#1882,#1559,#1560);
#1230=AXIS2_PLACEMENT_3D('',#1884,#1559,#1560);
#1231=AXIS2_PLACEMENT_3D('',#1885,#1561,#1562);
#1232=AXIS2_PLACEMENT_3D('',#1887,#1561,#1562);
#1233=AXIS2_PLACEMENT_3D('',#1888,#1563,#1564);
#1234=AXIS2_PLACEMENT_3D('',#1890,#1563,#1564);
#1235=AXIS2_PLACEMENT_3D('',#1891,#1565,#1566);
#1236=AXIS2_PLACEMENT_3D('',#1893,#1565,#1566);
#1237=AXIS2_PLACEMENT_3D('',#1894,#1567,#1568);
#1238=AXIS2_PLACEMENT_3D('',#1896,#1567,#1568);
#1239=AXIS2_PLACEMENT_3D('',#1897,#1569,#1570);
#1240=AXIS2_PLACEMENT_3D('',#1899,#1569,#1570);
#1241=DIRECTION('',(0.,0.,1.));
#1242=DIRECTION('',(1.,0.,0.));
#1243=DIRECTION('',(-0.991519744867291,-0.0787816580447585,0.103353983445343));
#1244=DIRECTION('',(0.103676220021142,0.,0.994611100582598));
#1245=DIRECTION('',(0.991519744867291,0.0787816580447585,-0.103353983445343));
#1246=DIRECTION('',(0.0530910299611908,-0.97146299004774,-0.231173098575859));
#1247=DIRECTION('',(-0.991519744867291,-0.0787816580447585,0.103353983445343));
#1248=DIRECTION('',(0.991519744867291,0.0787816580447585,-0.103353983445343));
#1249=DIRECTION('',(0.0530910299611908,-0.97146299004774,-0.231173098575859));
#1250=DIRECTION('',(-0.991519744867291,-0.0787816580447585,0.103353983445343));
#1251=DIRECTION('',(0.991519744867291,0.0787816580447585,-0.103353983445343));
#1252=DIRECTION('',(-0.103676220021142,0.,-0.994611100582598));
#1253=DIRECTION('',(0.991519744867291,0.0787816580447585,-0.103353983445343));
#1254=DIRECTION('',(-0.103676220021142,0.,-0.994611100582598));
#1255=DIRECTION('',(0.0783571116136196,-0.996891895019575,-0.00816778451307535));
#1256=DIRECTION('',(-0.0196279568741414,-0.695391924067832,-0.718362593159044));
#1257=DIRECTION('',(0.128945532594471,-0.695391924067832,0.706967553403384));
#1258=DIRECTION('',(-0.0783571116136196,0.996891895019575,0.00816778451307535));
#1259=DIRECTION('',(-0.103676220021142,1.9821577475504E-16,-0.994611100582598));
#1260=DIRECTION('',(0.991519744867291,0.0787816580447585,-0.103353983445343));
#1261=DIRECTION('',(-0.103676220021142,0.,-0.994611100582598));
#1262=DIRECTION('',(0.991519744867291,0.0787816580447585,-0.103353983445345));
#1263=DIRECTION('',(-0.103676220021144,0.,-0.994611100582598));
#1264=DIRECTION('',(0.991519744867291,0.0787816580447585,-0.103353983445343));
#1265=DIRECTION('',(-0.103676220021142,0.,-0.994611100582598));
#1266=DIRECTION('',(-0.12871700320092,0.704909019078245,-0.697520758048906));
#1267=DIRECTION('',(0.991519744867291,0.0787816580447585,-0.103353983445343));
#1268=DIRECTION('',(-0.103676220021142,0.,-0.994611100582598));
#1269=DIRECTION('',(0.0783571116136195,-0.996891895019575,-0.00816778451307579));
#1270=DIRECTION('',(0.991519744867291,0.0787816580447585,-0.103353983445343));
#1271=DIRECTION('',(-0.103676220021142,0.,-0.994611100582598));
#1272=DIRECTION('',(0.991519744867291,0.0787816580447585,-0.103353983445343));
#1273=DIRECTION('',(-0.103676220021142,0.,-0.994611100582598));
#1274=DIRECTION('',(-0.0783571116136193,0.996891895019575,0.00816778451307812));
#1275=DIRECTION('',(0.991519744867291,0.0787816580447585,-0.103353983445343));
#1276=DIRECTION('',(-0.103676220021142,0.,-0.994611100582598));
#1277=DIRECTION('',(0.12871700320092,-0.704909019078243,0.697520758048908));
#1278=DIRECTION('',(0.991519744867291,0.0787816580447585,-0.103353983445343));
#1279=DIRECTION('',(-0.103676220021142,0.,-0.994611100582598));
#1280=DIRECTION('',(0.0179033132485562,0.704909019078254,0.709071749681835));
#1281=DIRECTION('',(0.991519744867291,0.0787816580447585,-0.103353983445343));
#1282=DIRECTION('',(-0.103676220021142,0.,-0.994611100582598));
#1283=DIRECTION('',(-0.103676220021142,-4.39816541994369E-15,-0.994611100582599));
#1284=DIRECTION('',(0.991519744867291,0.0787816580447585,-0.103353983445343));
#1285=DIRECTION('',(-0.103676220021142,0.,-0.994611100582598));
#1286=DIRECTION('',(0.103676220021142,7.06379399417756E-15,0.994611100582599));
#1287=DIRECTION('',(0.991519744867291,0.0787816580447585,-0.103353983445343));
#1288=DIRECTION('',(-0.103676220021142,0.,-0.994611100582598));
#1289=DIRECTION('',(-0.12871700320092,0.704909019078245,-0.697520758048906));
#1290=DIRECTION('',(0.991519744867291,0.0787816580447585,-0.103353983445343));
#1291=DIRECTION('',(-0.103676220021142,0.,-0.994611100582598));
#1292=DIRECTION('',(-0.0179033132485565,-0.704909019078252,-0.709071749681836));
#1293=DIRECTION('',(0.991519744867291,0.0787816580447585,-0.103353983445343));
#1294=DIRECTION('',(-0.103676220021142,0.,-0.994611100582598));
#1295=DIRECTION('',(0.103676220021142,1.84227093978469E-15,0.994611100582598));
#1296=DIRECTION('',(0.991519744867291,0.0787816580447585,-0.103353983445343));
#1297=DIRECTION('',(-0.103676220021142,0.,-0.994611100582598));
#1298=DIRECTION('',(0.0783571116136195,-0.996891895019575,-0.00816778451307546));
#1299=DIRECTION('',(0.991519744867291,0.0787816580447585,-0.103353983445343));
#1300=DIRECTION('',(-0.103676220021142,0.,-0.994611100582598));
#1301=DIRECTION('',(0.991519744867291,0.0787816580447585,-0.103353983445343));
#1302=DIRECTION('',(-0.103676220021142,0.,-0.994611100582598));
#1303=DIRECTION('',(0.0179033132485569,0.70490901907825,0.709071749681838));
#1304=DIRECTION('',(0.991519744867291,0.0787816580447585,-0.103353983445343));
#1305=DIRECTION('',(-0.103676220021142,0.,-0.994611100582598));
#1306=DIRECTION('',(-0.0783571116136198,0.996891895019575,0.00816778451307314));
#1307=DIRECTION('',(0.991519744867291,0.0787816580447585,-0.103353983445343));
#1308=DIRECTION('',(-0.103676220021142,0.,-0.994611100582598));
#1309=DIRECTION('',(-0.0179033132485565,-0.704909019078252,-0.709071749681836));
#1310=DIRECTION('',(0.991519744867291,0.0787816580447585,-0.103353983445343));
#1311=DIRECTION('',(-0.103676220021142,0.,-0.994611100582598));
#1312=DIRECTION('',(-0.103676220021142,-4.5022488285023E-15,-0.994611100582599));
#1313=DIRECTION('',(0.991519744867291,0.0787816580447585,-0.103353983445343));
#1314=DIRECTION('',(-0.103676220021142,0.,-0.994611100582598));
#1315=DIRECTION('',(0.12871700320092,-0.704909019078247,0.697520758048904));
#1316=DIRECTION('',(0.0196279568741414,0.695391924067832,0.718362593159044));
#1317=DIRECTION('',(0.0783571116136196,-0.996891895019575,-0.00816778451307535));
#1318=DIRECTION('',(-0.103676220021142,1.9821577475504E-16,-0.994611100582598));
#1319=DIRECTION('',(-0.0783571116136196,0.996891895019575,0.00816778451307535));
#1320=DIRECTION('',(-0.128945532594471,0.695391924067832,-0.706967553403384));
#1321=DIRECTION('',(-0.991519744867291,-0.0787816580447585,0.103353983445343));
#1322=DIRECTION('',(0.103676220021142,0.,0.994611100582598));
#1323=DIRECTION('',(-0.991519744867291,-0.0787816580447585,0.103353983445345));
#1324=DIRECTION('',(0.103676220021144,0.,0.994611100582598));
#1325=DIRECTION('',(-0.991519744867292,-0.0787816580447572,0.103353983445341));
#1326=DIRECTION('',(0.103676220021141,0.,0.994611100582599));
#1327=DIRECTION('',(-0.991519744867291,-0.0787816580447585,0.103353983445345));
#1328=DIRECTION('',(0.103676220021144,0.,0.994611100582598));
#1329=DIRECTION('',(-0.991519744867291,-0.0787816580447585,0.103353983445345));
#1330=DIRECTION('',(0.103676220021144,0.,0.994611100582598));
#1331=DIRECTION('',(-0.991519744867291,-0.0787816580447585,0.103353983445345));
#1332=DIRECTION('',(0.103676220021144,0.,0.994611100582598));
#1333=DIRECTION('',(-0.991519744867291,-0.0787816580447585,0.103353983445345));
#1334=DIRECTION('',(0.103676220021144,0.,0.994611100582598));
#1335=DIRECTION('',(-0.0506076844998442,-0.498445947509783,-0.865442372247071));
#1336=DIRECTION('',(-0.128964796113463,0.49844594750979,-0.857274587733989));
#1337=DIRECTION('',(-0.0783571116136194,0.996891895019575,0.00816778451308351));
#1338=DIRECTION('',(0.0506076844998469,0.498445947509785,0.86544237224707));
#1339=DIRECTION('',(0.128964796113466,-0.49844594750979,0.857274587733988));
#1340=DIRECTION('',(0.0783571116136177,-0.996891895019575,-0.00816778451308008));
#1341=DIRECTION('',(0.991519744867291,0.0787816580447585,-0.103353983445345));
#1342=DIRECTION('',(-0.103676220021144,0.,-0.994611100582598));
#1343=DIRECTION('',(0.991519744867291,0.0787816580447585,-0.103353983445345));
#1344=DIRECTION('',(-0.103676220021144,0.,-0.994611100582598));
#1345=DIRECTION('',(-0.991519744867292,-0.0787816580447572,0.103353983445341));
#1346=DIRECTION('',(0.103676220021141,0.,0.994611100582599));
#1347=DIRECTION('',(-0.0506076844998442,-0.498445947509783,-0.865442372247071));
#1348=DIRECTION('',(0.0783571116136177,-0.996891895019575,-0.00816778451308008));
#1349=DIRECTION('',(0.128964796113466,-0.49844594750979,0.857274587733988));
#1350=DIRECTION('',(0.0506076844998469,0.498445947509785,0.86544237224707));
#1351=DIRECTION('',(-0.0783571116136194,0.996891895019575,0.00816778451308351));
#1352=DIRECTION('',(-0.128964796113463,0.49844594750979,-0.857274587733989));
#1353=DIRECTION('',(-0.119697359235138,0.863333705913764,-0.490232041410332));
#1354=DIRECTION('',(0.,0.493782124479988,0.869585656243265));
#1355=DIRECTION('',(-0.991519744867291,-0.0787816580447584,0.103353983445343));
#1356=DIRECTION('',(-0.991519744867291,-0.0787816580447584,0.103353983445343));
#1357=DIRECTION('',(-0.103676220021142,1.43623732910046E-15,-0.994611100582598));
#1358=DIRECTION('',(-0.994611100582599,0.,0.103676220021142));
#1359=DIRECTION('',(-0.991519744867291,-0.0787816580447584,0.103353983445343));
#1360=DIRECTION('',(0.0160211392139952,-0.86333370591376,-0.504379059172265));
#1361=DIRECTION('',(0.,0.504443802863288,-0.863444526158354));
#1362=DIRECTION('',(-0.991519744867291,-0.0787816580447584,0.103353983445343));
#1363=DIRECTION('',(0.119697359235138,-0.863333705913763,0.490232041410334));
#1364=DIRECTION('',(0.,-0.493782124479989,-0.869585656243264));
#1365=DIRECTION('',(-0.991519744867291,-0.0787816580447584,0.103353983445343));
#1366=DIRECTION('',(0.103676220021143,-4.66405263834466E-15,0.994611100582598));
#1367=DIRECTION('',(0.994611100582598,0.,-0.103676220021143));
#1368=DIRECTION('',(-0.991519744867291,-0.0787816580447584,0.103353983445343));
#1369=DIRECTION('',(-0.0160211392139952,0.86333370591376,0.504379059172265));
#1370=DIRECTION('',(0.,-0.504443802863288,0.863444526158354));
#1371=DIRECTION('',(0.991519744867291,0.0787816580447584,-0.103353983445343));
#1372=DIRECTION('',(-0.103676220021142,0.,-0.994611100582598));
#1373=DIRECTION('',(0.991519744867291,0.0787816580447588,-0.103353983445346));
#1374=DIRECTION('',(0.991519744867291,0.0787816580447585,-0.103353983445343));
#1375=DIRECTION('',(-0.103676220021142,0.,-0.994611100582598));
#1376=DIRECTION('',(0.991519744867291,0.0787816580447575,-0.103353983445346));
#1377=DIRECTION('',(0.991519744867291,0.0787816580447584,-0.103353983445343));
#1378=DIRECTION('',(-0.103676220021142,0.,-0.994611100582598));
#1379=DIRECTION('',(0.991519744867291,0.0787816580447575,-0.103353983445346));
#1380=DIRECTION('',(0.991519744867291,0.0787816580447585,-0.103353983445343));
#1381=DIRECTION('',(-0.103676220021142,0.,-0.994611100582598));
#1382=DIRECTION('',(0.991519744867291,0.0787816580447588,-0.103353983445346));
#1383=DIRECTION('',(-0.0179033132485592,-0.704909019078253,-0.709071749681835));
#1384=DIRECTION('',(0.978297458479358,0.134070697674711,-0.157984590254382));
#1385=DIRECTION('',(-0.12871700320092,0.704909019078245,-0.697520758048906));
#1386=DIRECTION('',(0.103676220021146,3.27168847569226E-15,0.994611100582598));
#1387=DIRECTION('',(-0.98226489423756,-0.157073592762047,0.102389276808161));
#1388=DIRECTION('',(0.0783571116136195,-0.996891895019575,-0.00816778451307579));
#1389=DIRECTION('',(0.991519744867291,0.0787816580447585,-0.103353983445343));
#1390=DIRECTION('',(-0.103676220021142,0.,-0.994611100582598));
#1391=DIRECTION('',(0.991519744867291,0.0787816580447584,-0.103353983445343));
#1392=DIRECTION('',(-0.103676220021142,0.,-0.994611100582598));
#1393=DIRECTION('',(0.991519744867291,0.0787816580447584,-0.103353983445343));
#1394=DIRECTION('',(0.991519744867291,0.0787816580447585,-0.103353983445343));
#1395=DIRECTION('',(-0.103676220021142,0.,-0.994611100582598));
#1396=DIRECTION('',(0.991519744867291,0.0787816580447597,-0.103353983445343));
#1397=DIRECTION('',(0.991519744867291,0.0787816580447584,-0.103353983445343));
#1398=DIRECTION('',(-0.103676220021142,0.,-0.994611100582598));
#1399=DIRECTION('',(0.991519744867291,0.0787816580447585,-0.103353983445343));
#1400=DIRECTION('',(-0.103676220021142,0.,-0.994611100582598));
#1401=DIRECTION('',(0.991519744867291,0.0787816580447584,-0.103353983445343));
#1402=DIRECTION('',(0.991519744867291,0.0787816580447597,-0.103353983445343));
#1403=DIRECTION('',(-0.103676220021142,-6.59556321595349E-16,-0.994611100582599));
#1404=DIRECTION('',(-0.994611100582599,0.,0.103676220021142));
#1405=DIRECTION('',(0.991519744867291,0.0787816580447584,-0.103353983445343));
#1406=DIRECTION('',(-0.0783571116136193,0.996891895019575,0.00816778451307812));
#1407=DIRECTION('',(0.0179033132485553,0.704909019078255,0.709071749681834));
#1408=DIRECTION('',(0.9985785363408,0.0230028950873364,-0.0480809065749203));
#1409=DIRECTION('',(0.12871700320092,-0.704909019078247,0.697520758048904));
#1410=DIRECTION('',(0.991519744867291,0.0787816580447585,-0.103353983445343));
#1411=DIRECTION('',(-0.103676220021142,0.,-0.994611100582598));
#1412=DIRECTION('',(0.991519744867291,0.0787816580447585,-0.103353983445343));
#1413=DIRECTION('',(-0.103676220021142,0.,-0.994611100582598));
#1414=DIRECTION('',(0.991519744867291,0.0787816580447584,-0.103353983445343));
#1415=DIRECTION('',(-0.103676220021142,0.,-0.994611100582598));
#1416=DIRECTION('',(0.991519744867291,0.0787816580447604,-0.103353983445344));
#1417=DIRECTION('',(0.991519744867291,0.0787816580447585,-0.103353983445343));
#1418=DIRECTION('',(-0.103676220021142,0.,-0.994611100582598));
#1419=DIRECTION('',(0.991519744867291,0.07878165804476,-0.103353983445346));
#1420=DIRECTION('',(0.991519744867291,0.0787816580447584,-0.103353983445343));
#1421=DIRECTION('',(-0.103676220021142,0.,-0.994611100582598));
#1422=DIRECTION('',(0.991519744867291,0.07878165804476,-0.103353983445346));
#1423=DIRECTION('',(0.991519744867291,0.0787816580447585,-0.103353983445343));
#1424=DIRECTION('',(-0.103676220021142,0.,-0.994611100582598));
#1425=DIRECTION('',(0.991519744867291,0.0787816580447604,-0.103353983445344));
#1426=DIRECTION('',(-0.128717003200923,0.704909019078244,-0.697520758048906));
#1427=DIRECTION('',(0.989848450112295,0.134070697674714,-0.0471709003020197));
#1428=DIRECTION('',(0.0179033132485562,0.704909019078254,0.709071749681835));
#1429=DIRECTION('',(0.0783571116136215,-0.996891895019575,-0.0081677845130746));
#1430=DIRECTION('',(-0.996605781923158,-0.0785367963810257,0.0246756368010321));
#1431=DIRECTION('',(-0.103676220021142,-4.39816541994369E-15,-0.994611100582599));
#1432=DIRECTION('',(0.991519744867291,0.0787816580447585,-0.103353983445343));
#1433=DIRECTION('',(-0.103676220021142,0.,-0.994611100582598));
#1434=DIRECTION('',(0.991519744867291,0.0787816580447584,-0.103353983445343));
#1435=DIRECTION('',(-0.103676220021142,0.,-0.994611100582598));
#1436=DIRECTION('',(0.991519744867291,0.0787816580447604,-0.103353983445344));
#1437=DIRECTION('',(0.991519744867291,0.0787816580447585,-0.103353983445343));
#1438=DIRECTION('',(-0.103676220021142,0.,-0.994611100582598));
#1439=DIRECTION('',(0.991519744867291,0.0787816580447597,-0.103353983445343));
#1440=DIRECTION('',(0.991519744867291,0.0787816580447584,-0.103353983445343));
#1441=DIRECTION('',(-0.103676220021142,0.,-0.994611100582598));
#1442=DIRECTION('',(0.991519744867291,0.0787816580447597,-0.103353983445343));
#1443=DIRECTION('',(0.991519744867291,0.0787816580447585,-0.103353983445343));
#1444=DIRECTION('',(-0.103676220021142,0.,-0.994611100582598));
#1445=DIRECTION('',(0.991519744867291,0.0787816580447604,-0.103353983445344));
#1446=DIRECTION('',(-0.0783571116136218,0.996891895019574,0.00816778451307194));
#1447=DIRECTION('',(0.996605781923158,0.0785367963810259,-0.0246756368010321));
#1448=DIRECTION('',(0.103676220021142,7.06379399417756E-15,0.994611100582599));
#1449=DIRECTION('',(-0.0179033132485557,-0.704909019078253,-0.709071749681836));
#1450=DIRECTION('',(-0.9985785363408,-0.0230028950873362,0.0480809065749205));
#1451=DIRECTION('',(-0.12871700320092,0.704909019078245,-0.697520758048906));
#1452=DIRECTION('',(0.991519744867291,0.0787816580447585,-0.103353983445343));
#1453=DIRECTION('',(-0.103676220021142,0.,-0.994611100582598));
#1454=DIRECTION('',(0.991519744867291,0.0787816580447584,-0.103353983445343));
#1455=DIRECTION('',(-0.103676220021142,0.,-0.994611100582598));
#1456=DIRECTION('',(0.991519744867291,0.0787816580447568,-0.103353983445345));
#1457=DIRECTION('',(0.991519744867291,0.0787816580447585,-0.103353983445343));
#1458=DIRECTION('',(-0.103676220021142,0.,-0.994611100582598));
#1459=DIRECTION('',(0.991519744867291,0.0787816580447572,-0.103353983445344));
#1460=DIRECTION('',(0.991519744867291,0.0787816580447584,-0.103353983445343));
#1461=DIRECTION('',(-0.103676220021142,0.,-0.994611100582598));
#1462=DIRECTION('',(0.991519744867291,0.0787816580447572,-0.103353983445344));
#1463=DIRECTION('',(0.991519744867291,0.0787816580447585,-0.103353983445343));
#1464=DIRECTION('',(-0.103676220021142,0.,-0.994611100582598));
#1465=DIRECTION('',(0.991519744867291,0.0787816580447568,-0.103353983445345));
#1466=DIRECTION('',(0.128717003200919,-0.704909019078246,0.697520758048905));
#1467=DIRECTION('',(0.987027544707863,0.0230028950873332,-0.158894596527283));
#1468=DIRECTION('',(-0.0179033132485565,-0.704909019078252,-0.709071749681836));
#1469=DIRECTION('',(-0.0783571116136177,0.996891895019575,0.00816778451307678));
#1470=DIRECTION('',(-0.980270212897001,-0.0785367963810216,0.181389860028271));
#1471=DIRECTION('',(0.103676220021142,1.84227093978469E-15,0.994611100582598));
#1472=DIRECTION('',(0.991519744867291,0.0787816580447585,-0.103353983445343));
#1473=DIRECTION('',(-0.103676220021142,0.,-0.994611100582598));
#1474=DIRECTION('',(0.991519744867291,0.0787816580447584,-0.103353983445343));
#1475=DIRECTION('',(-0.103676220021142,0.,-0.994611100582598));
#1476=DIRECTION('',(0.991519744867291,0.0787816580447572,-0.103353983445344));
#1477=DIRECTION('',(0.991519744867291,0.0787816580447585,-0.103353983445343));
#1478=DIRECTION('',(-0.103676220021142,0.,-0.994611100582598));
#1479=DIRECTION('',(0.991519744867291,0.0787816580447584,-0.103353983445343));
#1480=DIRECTION('',(0.991519744867291,0.0787816580447584,-0.103353983445343));
#1481=DIRECTION('',(-0.103676220021142,0.,-0.994611100582598));
#1482=DIRECTION('',(0.991519744867291,0.0787816580447584,-0.103353983445343));
#1483=DIRECTION('',(0.991519744867291,0.0787816580447585,-0.103353983445343));
#1484=DIRECTION('',(-0.103676220021142,0.,-0.994611100582598));
#1485=DIRECTION('',(0.991519744867291,0.0787816580447572,-0.103353983445344));
#1486=DIRECTION('',(0.103676220021142,3.32488666228888E-15,0.994611100582598));
#1487=DIRECTION('',(0.994611100582599,0.,-0.103676220021142));
#1488=DIRECTION('',(0.0783571116136195,-0.996891895019575,-0.00816778451307546));
#1489=DIRECTION('',(0.991519744867291,0.0787816580447584,-0.103353983445343));
#1490=DIRECTION('',(-0.128717003200919,0.704909019078248,-0.697520758048903));
#1491=DIRECTION('',(-0.987027544707863,-0.0230028950873334,0.158894596527283));
#1492=DIRECTION('',(0.0179033132485569,0.70490901907825,0.709071749681838));
#1493=DIRECTION('',(0.991519744867291,0.0787816580447585,-0.103353983445343));
#1494=DIRECTION('',(-0.103676220021142,0.,-0.994611100582598));
#1495=DIRECTION('',(0.991519744867291,0.0787816580447585,-0.103353983445343));
#1496=DIRECTION('',(-0.103676220021142,0.,-0.994611100582598));
#1497=DIRECTION('',(0.991519744867291,0.0787816580447584,-0.103353983445343));
#1498=DIRECTION('',(-0.103676220021142,0.,-0.994611100582598));
#1499=DIRECTION('',(0.991519744867291,0.07878165804476,-0.103353983445346));
#1500=DIRECTION('',(0.991519744867291,0.0787816580447585,-0.103353983445343));
#1501=DIRECTION('',(-0.103676220021142,0.,-0.994611100582598));
#1502=DIRECTION('',(0.991519744867291,0.0787816580447588,-0.103353983445346));
#1503=DIRECTION('',(0.991519744867291,0.0787816580447584,-0.103353983445343));
#1504=DIRECTION('',(-0.103676220021142,0.,-0.994611100582598));
#1505=DIRECTION('',(0.991519744867291,0.0787816580447588,-0.103353983445346));
#1506=DIRECTION('',(0.991519744867291,0.0787816580447585,-0.103353983445343));
#1507=DIRECTION('',(-0.103676220021142,0.,-0.994611100582598));
#1508=DIRECTION('',(0.991519744867291,0.07878165804476,-0.103353983445346));
#1509=DIRECTION('',(-0.103676220021145,-5.93275428784068E-15,-0.994611100582598));
#1510=DIRECTION('',(0.98226489423756,0.157073592762047,-0.102389276808161));
#1511=DIRECTION('',(-0.0783571116136198,0.996891895019575,0.00816778451307314));
#1512=DIRECTION('',(0.128717003200923,-0.704909019078246,0.697520758048905));
#1513=DIRECTION('',(-0.989848450112295,-0.134070697674714,0.0471709003020196));
#1514=DIRECTION('',(-0.0179033132485565,-0.704909019078252,-0.709071749681836));
#1515=DIRECTION('',(0.991519744867291,0.0787816580447585,-0.103353983445343));
#1516=DIRECTION('',(-0.103676220021142,0.,-0.994611100582598));
#1517=DIRECTION('',(0.991519744867291,0.0787816580447584,-0.103353983445343));
#1518=DIRECTION('',(-0.103676220021142,0.,-0.994611100582598));
#1519=DIRECTION('',(0.991519744867291,0.0787816580447575,-0.103353983445346));
#1520=DIRECTION('',(0.991519744867291,0.0787816580447585,-0.103353983445343));
#1521=DIRECTION('',(-0.103676220021142,0.,-0.994611100582598));
#1522=DIRECTION('',(0.991519744867291,0.0787816580447568,-0.103353983445345));
#1523=DIRECTION('',(0.991519744867291,0.0787816580447584,-0.103353983445343));
#1524=DIRECTION('',(-0.103676220021142,0.,-0.994611100582598));
#1525=DIRECTION('',(0.991519744867291,0.0787816580447568,-0.103353983445345));
#1526=DIRECTION('',(0.991519744867291,0.0787816580447585,-0.103353983445343));
#1527=DIRECTION('',(-0.103676220021142,0.,-0.994611100582598));
#1528=DIRECTION('',(0.991519744867291,0.0787816580447575,-0.103353983445346));
#1529=DIRECTION('',(0.078357111613618,-0.996891895019575,-0.00816778451307412));
#1530=DIRECTION('',(0.980270212897001,0.0785367963810214,-0.181389860028271));
#1531=DIRECTION('',(-0.103676220021142,-4.5022488285023E-15,-0.994611100582599));
#1532=DIRECTION('',(0.0179033132485596,0.704909019078251,0.709071749681837));
#1533=DIRECTION('',(-0.978297458479358,-0.134070697674711,0.157984590254382));
#1534=DIRECTION('',(0.12871700320092,-0.704909019078247,0.697520758048904));
#1535=DIRECTION('',(0.991519744867291,0.0787816580447585,-0.103353983445343));
#1536=DIRECTION('',(-0.103676220021142,0.,-0.994611100582598));
#1537=DIRECTION('',(0.991519744867291,0.0787816580447584,-0.103353983445343));
#1538=DIRECTION('',(-0.103676220021142,0.,-0.994611100582598));
#1539=DIRECTION('',(0.991519744867291,0.0787816580447584,-0.103353983445343));
#1540=DIRECTION('',(-0.103676220021142,0.,-0.994611100582598));
#1541=DIRECTION('',(0.078357111613619,-0.996891895019575,-0.00816778451307897));
#1542=DIRECTION('',(0.996925149360332,0.0783597254517928,0.));
#1543=DIRECTION('',(-0.991519744867291,-0.0787816580447584,0.103353983445343));
#1544=DIRECTION('',(-0.991519744867291,-0.0787816580447584,0.103353983445343));
#1545=DIRECTION('',(0.103676220021142,3.44234189764148E-15,0.994611100582599));
#1546=DIRECTION('',(0.994611100582599,0.,-0.103676220021142));
#1547=DIRECTION('',(0.991519744867291,0.0787816580447585,-0.103353983445343));
#1548=DIRECTION('',(-0.103676220021142,-3.44234189764148E-15,-0.994611100582599));
#1549=DIRECTION('',(-0.994611100582599,0.,0.103676220021142));
#1550=DIRECTION('',(-0.991519744867291,-0.0787816580447585,0.103353983445343));
#1551=DIRECTION('',(0.128465321574534,-0.714299322621097,0.687948500147936));
#1552=DIRECTION('',(-0.991519744867291,-0.0787816580447585,0.103353983445343));
#1553=DIRECTION('',(0.0161754493671671,0.714299322621096,0.699653365989769));
#1554=DIRECTION('',(-0.991519744867291,-0.0787816580447585,0.103353983445343));
#1555=DIRECTION('',(0.,0.,1.));
#1556=DIRECTION('',(1.,0.,0.));
#1557=DIRECTION('',(0.,-1.,0.));
#1558=DIRECTION('',(1.,0.,0.));
#1559=DIRECTION('',(1.,0.,0.));
#1560=DIRECTION('',(0.,1.,0.));
#1561=DIRECTION('',(0.,1.,0.));
#1562=DIRECTION('',(-1.,0.,0.));
#1563=DIRECTION('',(0.,0.,-1.));
#1564=DIRECTION('',(1.,0.,0.));
#1565=DIRECTION('',(-1.,0.,0.));
#1566=DIRECTION('',(0.,-1.,0.));
#1567=DIRECTION('',(0.577350269189626,-0.577350269189626,0.577350269189626));
#1568=DIRECTION('',(0.707106765795072,0.707106796578021,3.07829488288558E-8));
#1569=DIRECTION('',(0.718873086818576,-0.585048618558824,0.375419230954334));
#1570=DIRECTION('',(0.631219071921066,0.775604592071957,-2.01137133337692E-8));
#1571=CARTESIAN_POINT('',(0.,0.,0.));
#1572=CARTESIAN_POINT('',(77.7905813942131,-4.01803916445861,92.4475045455453));
#1573=CARTESIAN_POINT('',(77.7905813942131,-4.01803916445861,92.4475045455453));
#1574=CARTESIAN_POINT('',(83.461569514344,-78.822194057597,89.8322337249127));
#1575=CARTESIAN_POINT('',(83.8790178283545,-78.822194057597,93.8369970828908));
#1576=CARTESIAN_POINT('',(83.461569514344,-78.822194057597,89.8322337249127));
#1577=CARTESIAN_POINT('',(65.6142141067327,-80.2402639024027,91.6926054269289));
#1578=CARTESIAN_POINT('',(59.9432259866018,-5.43610900926426,94.3078762475615));
#1579=CARTESIAN_POINT('',(66.0316624207432,-80.2402639024027,95.697368784907));
#1580=CARTESIAN_POINT('',(83.8790178283545,-78.822194057597,93.8369970828908));
#1581=CARTESIAN_POINT('',(77.7905813942131,-4.01803916445861,92.4475045455453));
#1582=CARTESIAN_POINT('',(77.7905813942131,-4.01803916445861,92.4475045455453));
#1583=CARTESIAN_POINT('',(77.0026421220524,-4.01803916445861,84.8884601811176));
#1584=CARTESIAN_POINT('',(77.6869051741919,-4.01803916445862,91.4528934449626));
#1585=CARTESIAN_POINT('',(83.1769477183149,-73.8646529923928,90.8806226766228));
#1586=CARTESIAN_POINT('',(83.4893251574835,-77.8388492188912,90.8480610934132));
#1587=CARTESIAN_POINT('',(84.5172711089644,-41.420116611028,128.469802575125));
#1588=CARTESIAN_POINT('',(76.9436039565979,-41.4201166110277,55.8123173743217));
#1589=CARTESIAN_POINT('',(83.6966775975258,-77.8388492188912,92.8372832945784));
#1590=CARTESIAN_POINT('',(77.8942576142342,-4.01803916445861,93.4421156461278));
#1591=CARTESIAN_POINT('',(83.3843001583571,-73.8646529923928,92.869844877788));
#1592=CARTESIAN_POINT('',(83.280623938336,-73.8646529923928,91.8752337772053));
#1593=CARTESIAN_POINT('',(59.9432259866018,-5.43610900926426,94.3078762475615));
#1594=CARTESIAN_POINT('',(59.9432259866018,-5.43610900926426,94.3078762475615));
#1595=CARTESIAN_POINT('',(58.9997723844094,-5.43610900926426,85.2569152322599));
#1596=CARTESIAN_POINT('',(59.9432259866018,-5.43610900926426,94.3078762475616));
#1597=CARTESIAN_POINT('',(58.1654704077897,5.50406891105963,85.5922527946082));
#1598=CARTESIAN_POINT('',(58.6891460695372,8.54030113790353,92.9304718190338));
#1599=CARTESIAN_POINT('',(59.9700809564747,-4.37874548064686,95.3714838720843));
#1600=CARTESIAN_POINT('',(50.9536707690686,44.9989490178066,46.5113246669919));
#1601=CARTESIAN_POINT('',(59.9432259866018,-5.43610900926427,94.3078762475614));
#1602=CARTESIAN_POINT('',(54.2989274102143,64.3944962291691,93.3880992027605));
#1603=CARTESIAN_POINT('',(59.7877116565701,-5.43610900926427,92.8159595966876));
#1604=CARTESIAN_POINT('',(59.9432259866018,-5.43610900926427,94.3078762475614));
#1605=CARTESIAN_POINT('',(66.3622370767663,-74.6453832385007,103.133417674796));
#1606=CARTESIAN_POINT('',(68.932781204135,-55.8711670363351,142.104427828131));
#1607=CARTESIAN_POINT('',(65.7209258026203,-67.7308153688979,102.251674499994));
#1608=CARTESIAN_POINT('',(64.9951922624723,-67.7308153688979,95.2893967959162));
#1609=CARTESIAN_POINT('',(60.0987403166335,-5.43610900926426,95.7997928984354));
#1610=CARTESIAN_POINT('',(61.1973059036664,-19.4125191564321,95.6852806760892));
#1611=CARTESIAN_POINT('',(59.9432259866018,-5.43610900926426,94.3078762475616));
#1612=CARTESIAN_POINT('',(61.7209815654139,-16.3762869295882,103.023499700515));
#1613=CARTESIAN_POINT('',(59.916371016729,-6.49347253788167,93.2442686230387));
#1614=CARTESIAN_POINT('',(59.9432259866018,-5.43610900926426,94.3078762475616));
#1615=CARTESIAN_POINT('',(60.3873056877506,3.38934185382977,105.295333200021));
#1616=CARTESIAN_POINT('',(61.2792294448999,-3.9407711667239,108.264561366029));
#1617=CARTESIAN_POINT('',(60.1363014914032,-6.49347253788168,95.3541573846349));
#1618=CARTESIAN_POINT('',(61.3903985566575,42.8842219605724,145.023444180052));
#1619=CARTESIAN_POINT('',(59.9432259866018,-5.43610900926427,94.3078762475614));
#1620=CARTESIAN_POINT('',(67.0880356437722,-3.94077116684372,163.990967337849));
#1621=CARTESIAN_POINT('',(59.8256903191814,-3.94077116673485,94.3201279243311));
#1622=CARTESIAN_POINT('',(59.9432259866018,-5.43610900926426,94.3078762475616));
#1623=CARTESIAN_POINT('',(61.5143007797417,-6.93144685179017,108.240058012493));
#1624=CARTESIAN_POINT('',(61.7746915051593,-14.2615598723459,105.150714949564));
#1625=CARTESIAN_POINT('',(60.0607616540223,-6.93144685179367,94.2956245707919));
#1626=CARTESIAN_POINT('',(67.323106978604,-6.93144685179317,163.966463984306));
#1627=CARTESIAN_POINT('',(59.9432259866018,-5.43610900926427,94.3078762475614));
#1628=CARTESIAN_POINT('',(68.9864911438793,-53.7564399791809,144.231643077102));
#1629=CARTESIAN_POINT('',(59.9700809564747,-4.37874548064686,95.3714838720843));
#1630=CARTESIAN_POINT('',(59.9432259866018,-5.43610900926426,94.3078762475616));
#1631=CARTESIAN_POINT('',(59.499146285453,-14.2615598723583,83.320419295102));
#1632=CARTESIAN_POINT('',(58.6072225283037,-6.93144685180461,80.3511911290941));
#1633=CARTESIAN_POINT('',(59.7501504818004,-4.3787454806469,93.2615951104881));
#1634=CARTESIAN_POINT('',(58.4960534165461,-53.7564399791009,43.5923083150709));
#1635=CARTESIAN_POINT('',(59.9432259866018,-5.43610900926427,94.3078762475614));
#1636=CARTESIAN_POINT('',(52.7984163294314,-6.93144685168465,24.6247851572741));
#1637=CARTESIAN_POINT('',(60.0607616540223,-6.93144685179369,94.2956245707919));
#1638=CARTESIAN_POINT('',(59.9432259866018,-5.43610900926426,94.3078762475616));
#1639=CARTESIAN_POINT('',(60.8862772436024,-19.4125191564351,92.7014473743339));
#1640=CARTESIAN_POINT('',(59.8852972950568,-16.3762869295962,85.4129815692562));
#1641=CARTESIAN_POINT('',(59.7877116565701,-5.43610900926427,92.8159595966876));
#1642=CARTESIAN_POINT('',(64.6841636024088,-67.7308153688979,92.3055634941686));
#1643=CARTESIAN_POINT('',(63.9584300622608,-67.7308153688979,85.3432857900904));
#1644=CARTESIAN_POINT('',(64.4041083985736,-74.6453832385008,84.3482370489738));
#1645=CARTESIAN_POINT('',(59.9432259866018,-5.43610900926427,94.3078762475614));
#1646=CARTESIAN_POINT('',(58.8822044261347,-55.8711670362616,45.6848705891378));
#1647=CARTESIAN_POINT('',(60.1363014914032,-6.49347253788168,95.3541573846349));
#1648=CARTESIAN_POINT('',(59.9432259866018,-5.43610900926426,94.3078762475616));
#1649=CARTESIAN_POINT('',(59.0001747296012,8.54030113790659,95.9143051207891));
#1650=CARTESIAN_POINT('',(60.0011546781469,5.50406891106768,103.202770925867));
#1651=CARTESIAN_POINT('',(60.0987403166335,-5.43610900926426,95.7997928984354));
#1652=CARTESIAN_POINT('',(54.6099560702667,64.3944962291644,96.3719325043992));
#1653=CARTESIAN_POINT('',(59.9432259866018,-5.43610900926427,94.3078762475614));
#1654=CARTESIAN_POINT('',(61.004247547069,44.9989490177332,142.930881905985));
#1655=CARTESIAN_POINT('',(59.7501504818004,-4.3787454806469,93.2615951104881));
#1656=CARTESIAN_POINT('',(59.9432259866018,-5.43610900926426,94.3078762475616));
#1657=CARTESIAN_POINT('',(58.372151193462,-3.94077116673834,80.3756944826304));
#1658=CARTESIAN_POINT('',(58.1117604680443,3.38934185381738,83.4650375455595));
#1659=CARTESIAN_POINT('',(59.8256903191814,-3.94077116673488,94.3201279243311));
#1660=CARTESIAN_POINT('',(52.5633449945996,-3.94077116673519,24.649288510817));
#1661=CARTESIAN_POINT('',(59.9432259866018,-5.43610900926427,94.3078762475614));
#1662=CARTESIAN_POINT('',(50.8999608293243,42.8842219606524,44.3841094180209));
#1663=CARTESIAN_POINT('',(59.916371016729,-6.49347253788168,93.2442686230387));
#1664=CARTESIAN_POINT('',(65.6419697498722,-79.2569190636968,92.7084327954294));
#1665=CARTESIAN_POINT('',(65.6419697498722,-79.2569190636968,92.7084327954294));
#1666=CARTESIAN_POINT('',(59.8395497665807,-5.43610900926427,93.3132651469788));
#1667=CARTESIAN_POINT('',(65.3295923107036,-75.2827228371984,92.740994378639));
#1668=CARTESIAN_POINT('',(65.4332685307247,-75.2827228371985,93.7356054792214));
#1669=CARTESIAN_POINT('',(65.5369447507459,-75.2827228371984,94.7302165798042));
#1670=CARTESIAN_POINT('',(60.0469022066229,-5.43610900926426,95.302487348144));
#1671=CARTESIAN_POINT('',(65.8493221899145,-79.2569190636968,94.6976549965946));
#1672=CARTESIAN_POINT('',(65.8493221899145,-79.2569190636968,94.6976549965946));
#1673=CARTESIAN_POINT('',(77.7905813942131,-4.01803916445861,92.4475045455453));
#1674=CARTESIAN_POINT('',(70.849943180142,-4.56951077077192,93.1709824296627));
#1675=CARTESIAN_POINT('',(71.2542804382245,-4.56951077077192,97.0499657219348));
#1676=CARTESIAN_POINT('',(67.2804720986197,-4.85312473973306,93.543056770066));
#1677=CARTESIAN_POINT('',(67.6848093567021,-4.85312473973306,97.4220400623381));
#1678=CARTESIAN_POINT('',(70.849943180142,-4.56951077077192,93.1709824296627));
#1679=CARTESIAN_POINT('',(70.849943180142,-4.56951077077192,93.1709824296627));
#1680=CARTESIAN_POINT('',(71.6378824523027,-4.56951077077192,100.73002679409));
#1681=CARTESIAN_POINT('',(84.7312196082841,-3.4665675581453,91.7240266614279));
#1682=CARTESIAN_POINT('',(64.1528075421684,-5.10163476773864,103.018074299775));
#1683=CARTESIAN_POINT('',(62.5818881519012,2.88165171747853,94.0328275184143));
#1684=CARTESIAN_POINT('',(62.5818881519012,2.88165171747853,94.0328275184143));
#1685=CARTESIAN_POINT('',(62.1728311081345,-1.14723891011899,87.0375401062249));
#1686=CARTESIAN_POINT('',(63.6242981884305,-1.14723891011906,100.962095514381));
#1687=CARTESIAN_POINT('',(63.6242981884305,-1.14723891011906,100.962095514381));
#1688=CARTESIAN_POINT('',(64.2576511811932,-9.20502016531413,100.896076098159));
#1689=CARTESIAN_POINT('',(64.2576511811932,-9.20502016531412,100.896076098159));
#1690=CARTESIAN_POINT('',(63.8485941374265,-13.2339107929117,93.9007886859696));
#1691=CARTESIAN_POINT('',(63.8485941374265,-13.2339107929117,93.9007886859696));
#1692=CARTESIAN_POINT('',(62.8061841008971,-9.20502016531408,86.9715206900026));
#1693=CARTESIAN_POINT('',(62.8061841008971,-9.20502016531412,86.9715206900026));
#1694=CARTESIAN_POINT('',(62.1728311081345,-1.14723891011902,87.0375401062249));
#1695=CARTESIAN_POINT('',(63.2152411446638,-5.17612953771657,93.9668081021919));
#1696=CARTESIAN_POINT('',(62.2717875424714,-5.17612953771657,84.9158470868903));
#1697=CARTESIAN_POINT('',(59.9432259866018,-5.43610900926427,94.3078762475615));
#1698=CARTESIAN_POINT('',(56.1790444900863,4.46373185729303,-5.85598830911896));
#1699=CARTESIAN_POINT('',(66.6471191058571,3.20465651546204,93.6090761862884));
#1700=CARTESIAN_POINT('',(66.2380620620904,-0.824234112135478,86.613788774099));
#1701=CARTESIAN_POINT('',(66.6471191058571,3.20465651546204,93.6090761862884));
#1702=CARTESIAN_POINT('',(66.2380620620904,-0.824234112135511,86.613788774099));
#1703=CARTESIAN_POINT('',(66.871415054853,-8.88201536733061,86.5477693578767));
#1704=CARTESIAN_POINT('',(66.871415054853,-8.88201536733057,86.5477693578767));
#1705=CARTESIAN_POINT('',(67.9138250913824,-12.9109059949281,93.4770373538437));
#1706=CARTESIAN_POINT('',(67.9138250913824,-12.9109059949281,93.4770373538437));
#1707=CARTESIAN_POINT('',(68.3228821351491,-8.88201536733061,100.472324766033));
#1708=CARTESIAN_POINT('',(68.3228821351491,-8.88201536733062,100.472324766033));
#1709=CARTESIAN_POINT('',(67.6895291423864,-0.824234112135518,100.538344182255));
#1710=CARTESIAN_POINT('',(67.6895291423864,-0.824234112135548,100.538344182255));
#1711=CARTESIAN_POINT('',(66.6471191058571,3.20465651546204,93.6090761862884));
#1712=CARTESIAN_POINT('',(66.2380620620904,-0.824234112135478,86.613788774099));
#1713=CARTESIAN_POINT('',(66.6471191058571,3.20465651546204,93.6090761862884));
#1714=CARTESIAN_POINT('',(66.2380620620904,-0.824234112135511,86.613788774099));
#1715=CARTESIAN_POINT('',(66.871415054853,-8.88201536733061,86.5477693578767));
#1716=CARTESIAN_POINT('',(66.871415054853,-8.88201536733057,86.5477693578767));
#1717=CARTESIAN_POINT('',(67.9138250913824,-12.9109059949281,93.4770373538437));
#1718=CARTESIAN_POINT('',(67.9138250913824,-12.9109059949281,93.4770373538437));
#1719=CARTESIAN_POINT('',(68.3228821351491,-8.88201536733061,100.472324766033));
#1720=CARTESIAN_POINT('',(68.3228821351491,-8.88201536733062,100.472324766033));
#1721=CARTESIAN_POINT('',(67.6895291423864,-0.824234112135518,100.538344182255));
#1722=CARTESIAN_POINT('',(67.6895291423864,-0.824234112135548,100.538344182255));
#1723=CARTESIAN_POINT('',(54.9856272622654,-5.83001729948806,94.8246461647883));
#1724=CARTESIAN_POINT('',(48.7739486208632,7.75248455745594,93.9640116534764));
#1725=CARTESIAN_POINT('',(75.5449817322822,9.87958932466674,91.1734541004738));
#1726=CARTESIAN_POINT('',(76.7990616493458,-4.09682082250337,92.5508585289907));
#1727=CARTESIAN_POINT('',(75.0213060705337,6.84335709782051,83.8352350760373));
#1728=CARTESIAN_POINT('',(48.2502729591168,4.71625233060965,86.6257926290593));
#1729=CARTESIAN_POINT('',(54.9856272622653,-5.83001729948806,94.8246461647881));
#1730=CARTESIAN_POINT('',(41.0384733203956,44.2111324373591,47.5448645014454));
#1731=CARTESIAN_POINT('',(67.8095064318126,46.3382372045676,44.7543069484209));
#1732=CARTESIAN_POINT('',(76.7990616493458,-4.09682082250338,92.5508585289905));
#1733=CARTESIAN_POINT('',(71.1547630729583,65.73378441593,91.6310814841896));
#1734=CARTESIAN_POINT('',(44.3837299615527,63.6066796487215,94.4216390373228));
#1735=CARTESIAN_POINT('',(48.250272959117,4.71625233061394,86.6257926290646));
#1736=CARTESIAN_POINT('',(76.8259166192186,-3.03945729388599,93.6144661535134));
#1737=CARTESIAN_POINT('',(44.3837299615304,63.6066796487168,94.421639037105));
#1738=CARTESIAN_POINT('',(76.6435473193141,-4.09682082250337,91.0589418781167));
#1739=CARTESIAN_POINT('',(76.7990616493458,-4.09682082250337,92.5508585289906));
#1740=CARTESIAN_POINT('',(54.9856272622654,-5.83001729948806,94.8246461647883));
#1741=CARTESIAN_POINT('',(51.2821084549946,-20.2003357368796,96.7188205105535));
#1742=CARTESIAN_POINT('',(78.0531415664094,-18.0732309696735,93.9282629575075));
#1743=CARTESIAN_POINT('',(76.7990616493458,-4.09682082250337,92.5508585289907));
#1744=CARTESIAN_POINT('',(78.5768172281579,-15.0369987428273,101.266481981944));
#1745=CARTESIAN_POINT('',(51.8057841167411,-17.1641035100334,104.057039534971));
#1746=CARTESIAN_POINT('',(54.9856272622653,-5.83001729948806,94.8246461647881));
#1747=CARTESIAN_POINT('',(76.7990616493458,-4.09682082250338,92.5508585289905));
#1748=CARTESIAN_POINT('',(85.788616866879,-54.5318788495741,140.34741010956));
#1749=CARTESIAN_POINT('',(83.2180727395103,-73.3060950517398,101.376399956225));
#1750=CARTESIAN_POINT('',(61.4046383524298,-75.0392915287245,103.650187592023));
#1751=CARTESIAN_POINT('',(59.0175837554621,-56.6589836167827,143.137967662585));
#1752=CARTESIAN_POINT('',(55.6723271143274,-76.0545308281405,96.2611931269248));
#1753=CARTESIAN_POINT('',(55.0799948137994,-68.5186319493455,96.3229366303697));
#1754=CARTESIAN_POINT('',(81.8510279252162,-66.391527182137,93.5323790773454));
#1755=CARTESIAN_POINT('',(76.9545759793775,-4.09682082250337,94.0427751798646));
#1756=CARTESIAN_POINT('',(51.8057841167408,-17.1641035100377,104.057039534965));
#1757=CARTESIAN_POINT('',(76.7722066794729,-5.15418435112082,91.4872509044678));
#1758=CARTESIAN_POINT('',(76.7990616493458,-4.09682082250337,92.5508585289906));
#1759=CARTESIAN_POINT('',(82.5767614653642,-66.391527182137,100.494656781424));
#1760=CARTESIAN_POINT('',(54.9856272622654,-5.83001729948806,94.8246461647883));
#1761=CARTESIAN_POINT('',(51.3640319962262,-4.7285877471606,109.298101200482));
#1762=CARTESIAN_POINT('',(78.135065107645,-2.60148297997386,106.50754364746));
#1763=CARTESIAN_POINT('',(76.7990616493458,-4.09682082250337,92.5508585289907));
#1764=CARTESIAN_POINT('',(77.2431413504946,4.7286300405907,103.53831548145));
#1765=CARTESIAN_POINT('',(50.4721082390773,2.60152527338457,106.328873034472));
#1766=CARTESIAN_POINT('',(54.9856272622653,-5.83001729948806,94.8246461647881));
#1767=CARTESIAN_POINT('',(51.4752011079846,42.0964053801248,146.056984014505));
#1768=CARTESIAN_POINT('',(78.2462342194015,44.2235101473333,143.266426461481));
#1769=CARTESIAN_POINT('',(76.7990616493458,-4.09682082250338,92.5508585289905));
#1770=CARTESIAN_POINT('',(83.9438713065161,-2.60148298008279,162.233949619278));
#1771=CARTESIAN_POINT('',(57.172838195108,-4.72858774740048,165.024507172302));
#1772=CARTESIAN_POINT('',(50.4721082390782,2.60152527337926,106.328873034476));
#1773=CARTESIAN_POINT('',(76.9921371541472,-5.15418435112075,93.597139666064));
#1774=CARTESIAN_POINT('',(57.1728381950903,-4.72858774718214,165.024507172299));
#1775=CARTESIAN_POINT('',(76.6815259819253,-2.60148297997393,92.5631102057603));
#1776=CARTESIAN_POINT('',(76.7990616493458,-4.09682082250337,92.5508585289906));
#1777=CARTESIAN_POINT('',(54.9856272622653,-5.83001729948806,94.8246461647881));
#1778=CARTESIAN_POINT('',(57.4079095299311,-7.71926343224076,165.000003818759));
#1779=CARTESIAN_POINT('',(84.1789426413479,-5.59215866503223,162.209446265735));
#1780=CARTESIAN_POINT('',(76.7990616493458,-4.09682082250338,92.5508585289905));
#1781=CARTESIAN_POINT('',(85.8423268066233,-52.4171517924199,142.474625358531));
#1782=CARTESIAN_POINT('',(59.0712936952045,-54.5442565597056,145.265182911478));
#1783=CARTESIAN_POINT('',(54.9856272622654,-5.83001729948806,94.8246461647883));
#1784=CARTESIAN_POINT('',(51.8594940564866,-15.0493764527858,106.184254784025));
#1785=CARTESIAN_POINT('',(78.6305271679034,-12.9222716855944,103.393697230987));
#1786=CARTESIAN_POINT('',(76.7990616493458,-4.09682082250337,92.5508585289907));
#1787=CARTESIAN_POINT('',(78.3701364424856,-5.59215866502925,106.483040293922));
#1788=CARTESIAN_POINT('',(51.5991033310685,-7.71926343223438,109.273597846946));
#1789=CARTESIAN_POINT('',(51.599103331069,-7.71926343224118,109.273597846945));
#1790=CARTESIAN_POINT('',(76.9165973167662,-5.59215866503275,92.538606852221));
#1791=CARTESIAN_POINT('',(59.0712936952078,-54.5442565595479,145.26518291163));
#1792=CARTESIAN_POINT('',(76.8259166192186,-3.03945729388599,93.6144661535134));
#1793=CARTESIAN_POINT('',(76.7990616493458,-4.09682082250337,92.5508585289906));
#1794=CARTESIAN_POINT('',(54.9856272622654,-5.83001729948806,94.8246461647883));
#1795=CARTESIAN_POINT('',(48.6920250796316,-7.71926343226308,81.3847309635475));
#1796=CARTESIAN_POINT('',(75.4630581910466,-5.59215866503285,78.5941734105211));
#1797=CARTESIAN_POINT('',(76.7990616493458,-4.09682082250337,92.5508585289907));
#1798=CARTESIAN_POINT('',(76.354981948197,-12.9222716855974,81.5634015765312));
#1799=CARTESIAN_POINT('',(49.5839488367805,-15.0493764528083,84.3539591295578));
#1800=CARTESIAN_POINT('',(54.9856272622653,-5.83001729948806,94.8246461647881));
#1801=CARTESIAN_POINT('',(48.5808559678731,-54.5442565595485,44.6258481495243));
#1802=CARTESIAN_POINT('',(75.3518890792901,-52.41715179234,41.8352905965));
#1803=CARTESIAN_POINT('',(76.7990616493458,-4.09682082250338,92.5508585289905));
#1804=CARTESIAN_POINT('',(69.6542519921754,-5.59215866492379,22.8677674387032));
#1805=CARTESIAN_POINT('',(42.8832188807498,-7.71926343202306,25.6583249917284));
#1806=CARTESIAN_POINT('',(49.5839488367797,-15.049376452803,84.3539591295536));
#1807=CARTESIAN_POINT('',(76.6059861445444,-3.03945729388601,91.5045773919173));
#1808=CARTESIAN_POINT('',(42.8832188807675,-7.7192634322414,25.6583249917313));
#1809=CARTESIAN_POINT('',(76.9165973167662,-5.59215866503283,92.538606852221));
#1810=CARTESIAN_POINT('',(76.7990616493458,-4.09682082250337,92.5508585289906));
#1811=CARTESIAN_POINT('',(54.9856272622654,-5.83001729948806,94.8246461647883));
#1812=CARTESIAN_POINT('',(49.9700998463853,-17.1641035100515,86.4465214037172));
#1813=CARTESIAN_POINT('',(76.7411329577993,-15.0369987428292,83.6559638506761));
#1814=CARTESIAN_POINT('',(76.7990616493458,-4.09682082250337,92.5508585289907));
#1815=CARTESIAN_POINT('',(77.7421129063464,-18.0732309696742,90.944429655763));
#1816=CARTESIAN_POINT('',(50.9710797949299,-20.2003357368827,93.7349872087907));
#1817=CARTESIAN_POINT('',(54.9856272622653,-5.83001729948806,94.8246461647881));
#1818=CARTESIAN_POINT('',(59.4465096742371,-75.0392915287246,84.8650069662005));
#1819=CARTESIAN_POINT('',(81.2599440613175,-73.3060950517399,82.591219330403));
#1820=CARTESIAN_POINT('',(76.7990616493458,-4.09682082250338,92.5508585289905));
#1821=CARTESIAN_POINT('',(75.7380400888786,-54.5318788495007,43.927852870567));
#1822=CARTESIAN_POINT('',(48.9670069774476,-56.658983616632,46.7184104235149));
#1823=CARTESIAN_POINT('',(50.9710797949291,-20.200335736882,93.7349872087839));
#1824=CARTESIAN_POINT('',(76.6435473193141,-4.09682082250338,91.0589418781167));
#1825=CARTESIAN_POINT('',(81.5399992651528,-66.391527182137,90.5485457755977));
#1826=CARTESIAN_POINT('',(54.7689661537359,-68.5186319493455,93.339103328622));
#1827=CARTESIAN_POINT('',(48.9670069774759,-56.6589836167831,46.718410423671));
#1828=CARTESIAN_POINT('',(76.9921371541472,-5.1541843511208,93.5971396660641));
#1829=CARTESIAN_POINT('',(76.7990616493458,-4.09682082250337,92.5508585289906));
#1830=CARTESIAN_POINT('',(80.8142657250048,-66.3915271821371,83.5862680715195));
#1831=CARTESIAN_POINT('',(54.9856272622654,-5.83001729948806,94.8246461647883));
#1832=CARTESIAN_POINT('',(50.0859572294725,4.71625233062779,104.236310760313));
#1833=CARTESIAN_POINT('',(76.8569903408923,6.84335709782257,101.445753207305));
#1834=CARTESIAN_POINT('',(76.7990616493458,-4.09682082250337,92.5508585289907));
#1835=CARTESIAN_POINT('',(75.8560103923452,9.87958932466749,94.1572874022182));
#1836=CARTESIAN_POINT('',(49.0849772809279,7.752484557459,96.9478449552392));
#1837=CARTESIAN_POINT('',(54.9856272622653,-5.83001729948806,94.8246461647881));
#1838=CARTESIAN_POINT('',(44.6947586215938,63.6066796487169,97.4054723388527));
#1839=CARTESIAN_POINT('',(71.4657917330107,65.7337844159253,94.6149147858283));
#1840=CARTESIAN_POINT('',(76.7990616493458,-4.09682082250338,92.5508585289905));
#1841=CARTESIAN_POINT('',(77.8600832098129,46.3382372044941,141.173864187414));
#1842=CARTESIAN_POINT('',(51.0890500984102,44.2111324372084,143.964421740515));
#1843=CARTESIAN_POINT('',(49.0849772809287,7.75248455745827,96.947844955246));
#1844=CARTESIAN_POINT('',(76.9545759793775,-4.09682082250336,94.0427751798646));
#1845=CARTESIAN_POINT('',(51.0890500983819,44.2111324373595,143.964421740359));
#1846=CARTESIAN_POINT('',(76.6059861445444,-3.03945729388601,91.5045773919173));
#1847=CARTESIAN_POINT('',(76.7990616493458,-4.09682082250337,92.5508585289906));
#1848=CARTESIAN_POINT('',(54.9856272622654,-5.83001729948806,94.8246461647883));
#1849=CARTESIAN_POINT('',(48.1965630193712,2.6015252733621,84.4985773800052));
#1850=CARTESIAN_POINT('',(74.9675961307882,4.72863004058757,81.7080198269947));
#1851=CARTESIAN_POINT('',(76.7990616493458,-4.09682082250337,92.5508585289907));
#1852=CARTESIAN_POINT('',(75.2279868562059,-2.60148297997747,78.6186767640595));
#1853=CARTESIAN_POINT('',(48.4569537447893,-4.7285877471893,81.4092343170838));
#1854=CARTESIAN_POINT('',(54.9856272622653,-5.83001729948806,94.8246461647881));
#1855=CARTESIAN_POINT('',(42.6481475459266,-4.72858774718277,25.6828283452705));
#1856=CARTESIAN_POINT('',(69.4191806573436,-2.60148297997432,22.8922707922461));
#1857=CARTESIAN_POINT('',(76.7990616493458,-4.09682082250338,92.5508585289905));
#1858=CARTESIAN_POINT('',(67.7557964920683,44.2235101474133,42.62709169945));
#1859=CARTESIAN_POINT('',(40.9847633806533,42.096405380282,45.417649252552));
#1860=CARTESIAN_POINT('',(48.4569537447888,-4.72858774718252,81.4092343170846));
#1861=CARTESIAN_POINT('',(76.6815259819253,-2.60148297997402,92.5631102057603));
#1862=CARTESIAN_POINT('',(40.98476338065,42.0964053801243,45.4176492523999));
#1863=CARTESIAN_POINT('',(76.7722066794729,-5.15418435112082,91.4872509044678));
#1864=CARTESIAN_POINT('',(76.7990616493458,-4.09682082250337,92.5508585289906));
#1865=CARTESIAN_POINT('',(59.0008313379244,-68.1247236591217,85.8600557073171));
#1866=CARTESIAN_POINT('',(60.7633270782838,-68.1247236591217,102.768444417221));
#1867=CARTESIAN_POINT('',(60.5793460264094,-75.6766311274223,95.2469864970309));
#1868=CARTESIAN_POINT('',(60.5793460264094,-75.6766311274223,95.2469864970309));
#1869=CARTESIAN_POINT('',(60.3719935863671,-75.6766311274223,93.2577642958657));
#1870=CARTESIAN_POINT('',(60.5287078095944,-77.6704149174614,93.2414287268396));
#1871=CARTESIAN_POINT('',(83.4893251574835,-77.8388492188912,90.8480610934132));
#1872=CARTESIAN_POINT('',(61.3371562578837,-85.3178093454862,95.1679939136518));
#1873=CARTESIAN_POINT('',(65.8493221899145,-79.2569190636968,94.6976549965946));
#1874=CARTESIAN_POINT('',(83.4893251574835,-77.8388492188912,90.8480610934132));
#1875=CARTESIAN_POINT('',(83.6966775975258,-77.8388492188912,92.8372832945784));
#1876=CARTESIAN_POINT('',(0.0688669052124024,-0.00471361494064331,0.));
#1877=CARTESIAN_POINT('',(0.0688669052124024,-0.00471361494064331,0.310493865966797));
#1878=CARTESIAN_POINT('',(-0.00854791012594841,-0.0821284302789941,0.));
#1879=CARTESIAN_POINT('',(0.0688669052124024,0.,0.0933776931762695));
#1880=CARTESIAN_POINT('',(0.0688669052124024,-0.310764862060547,0.0933776931762695));
#1881=CARTESIAN_POINT('',(-0.00861547704064332,-0.0774823822530457,0.0933776931762695));
#1882=CARTESIAN_POINT('',(0.,-0.00471361494064331,0.0933776931762695));
#1883=CARTESIAN_POINT('',(0.310764862060547,-0.00471361494064331,0.0933776931762695));
#1884=CARTESIAN_POINT('',(-0.0774823822530457,-0.082195997193689,0.0933776931762695));
#1885=CARTESIAN_POINT('',(0.0688669052124024,0.,0.0933776931762695));
#1886=CARTESIAN_POINT('',(0.0688669052124024,0.310764862060547,0.0933776931762695));
#1887=CARTESIAN_POINT('',(-0.00861547704064332,-0.0774823822530457,0.0933776931762695));
#1888=CARTESIAN_POINT('',(0.0688669052124024,-0.00471361494064331,0.));
#1889=CARTESIAN_POINT('',(0.0688669052124024,-0.00471361494064331,-0.310493865966797));
#1890=CARTESIAN_POINT('',(-0.00854791012594841,-0.0821284302789941,0.));
#1891=CARTESIAN_POINT('',(0.,-0.00471361494064331,0.0933776931762695));
#1892=CARTESIAN_POINT('',(-0.310764862060547,-0.00471361494064331,0.0933776931762695));
#1893=CARTESIAN_POINT('',(-0.0774823822530457,-0.082195997193689,0.0933776931762695));
#1894=CARTESIAN_POINT('',(0.0132141675949097,0.0509391212463379,0.0377249526977539));
#1895=CARTESIAN_POINT('',(0.25099364789327,-0.186840359052022,0.275504432996114));
#1896=CARTESIAN_POINT('',(-0.0894706079780447,-0.0517456543266165,0.0377249526977539));
#1897=CARTESIAN_POINT('',(0.00609487771987915,0.0463728523254395,0.0605960693359375));
#1898=CARTESIAN_POINT('',(0.282121703864677,-0.178269182940997,0.20474638000155));
#1899=CARTESIAN_POINT('',(-0.0896399862152151,-0.0493620116096548,0.0605960693359375));
#1900=MECHANICAL_DESIGN_GEOMETRIC_PRESENTATION_REPRESENTATION('',(#1107),
#1901);
#1901=(
GEOMETRIC_REPRESENTATION_CONTEXT(3)
GLOBAL_UNCERTAINTY_ASSIGNED_CONTEXT((#1902))
GLOBAL_UNIT_ASSIGNED_CONTEXT((#1905,#1904,#1903))
REPRESENTATION_CONTEXT('tool_sander','TOP_LEVEL_ASSEMBLY_PART')
);
#1902=UNCERTAINTY_MEASURE_WITH_UNIT(LENGTH_MEASURE(0.005),#1905,
'DISTANCE_ACCURACY_VALUE','Maximum Tolerance applied to model');
#1903=(
NAMED_UNIT(*)
SI_UNIT($,.STERADIAN.)
SOLID_ANGLE_UNIT()
);
#1904=(
NAMED_UNIT(*)
PLANE_ANGLE_UNIT()
SI_UNIT($,.RADIAN.)
);
#1905=(
LENGTH_UNIT()
NAMED_UNIT(*)
SI_UNIT(.MILLI.,.METRE.)
);
#1906=PRODUCT_DEFINITION_SHAPE('','',#1907);
#1907=PRODUCT_DEFINITION('','',#1909,#1908);
#1908=PRODUCT_DEFINITION_CONTEXT('',#1915,'design');
#1909=PRODUCT_DEFINITION_FORMATION_WITH_SPECIFIED_SOURCE('','',#1911,
 .NOT_KNOWN.);
#1910=PRODUCT_RELATED_PRODUCT_CATEGORY('','',(#1911));
#1911=PRODUCT('tool_sander','tool_sander','tool_sander',(#1913));
#1912=PRODUCT_CATEGORY('','');
#1913=PRODUCT_CONTEXT('',#1915,'mechanical');
#1914=APPLICATION_PROTOCOL_DEFINITION('international standard',
'ap242_managed_model_based_3d_engineering',2011,#1915);
#1915=APPLICATION_CONTEXT('managed model based 3d engineering');
ENDSEC;
END-ISO-10303-21;
