ISO-10303-21;
HEADER;
/* Generated by software containing ST-Developer
 * from STEP Tools, Inc. (www.steptools.com) 
 */

FILE_DESCRIPTION(
/* description */ (
'CAx-IF Rec.Pracs.---Representation and Presentation of Product Manufa
cturing Information (PMI)---4.0---2014-10-13',
'CAx-IF Rec.Pracs.---3D Tessellated Geometry---0.4---2014-09-14','2;1'),

/* implementation_level */ '2;1');

FILE_NAME(
/* name */ 'tool2_sander',
/* time_stamp */ '2025-07-31T23:48:39+03:00',
/* author */ (''),
/* organization */ (''),
/* preprocessor_version */ 'ST-DEVELOPER v16.7',
/* originating_system */ $,
/* authorisation */ $);

FILE_SCHEMA (('AP242_MANAGED_MODEL_BASED_3D_ENGINEERING_MIM_LF { 1 0 10303 442 20130219 1 4 }'));
ENDSEC;

DATA;
#10=PROPERTY_DEFINITION_REPRESENTATION(#14,#12);
#11=PROPERTY_DEFINITION_REPRESENTATION(#15,#13);
#12=REPRESENTATION('',(#16),#493);
#13=REPRESENTATION('',(#17),#493);
#14=PROPERTY_DEFINITION('pmi validation property','',#498);
#15=PROPERTY_DEFINITION('pmi validation property','',#498);
#16=VALUE_REPRESENTATION_ITEM('number of annotations',COUNT_MEASURE(0.));
#17=VALUE_REPRESENTATION_ITEM('number of views',COUNT_MEASURE(8.));
#18=CAMERA_MODEL_D3('Top',#308,#26);
#19=CAMERA_MODEL_D3('Front',#310,#27);
#20=CAMERA_MODEL_D3('Right',#312,#28);
#21=CAMERA_MODEL_D3('Back',#314,#29);
#22=CAMERA_MODEL_D3('Bottom',#316,#30);
#23=CAMERA_MODEL_D3('Left',#318,#31);
#24=CAMERA_MODEL_D3('Isometric',#320,#32);
#25=CAMERA_MODEL_D3('Trimetric',#322,#33);
#26=VIEW_VOLUME(.PARALLEL.,#469,0.,0.,.F.,0.,.F.,.F.,#34);
#27=VIEW_VOLUME(.PARALLEL.,#472,0.,0.,.F.,0.,.F.,.F.,#35);
#28=VIEW_VOLUME(.PARALLEL.,#475,0.,0.,.F.,0.,.F.,.F.,#36);
#29=VIEW_VOLUME(.PARALLEL.,#478,0.,0.,.F.,0.,.F.,.F.,#37);
#30=VIEW_VOLUME(.PARALLEL.,#481,0.,0.,.F.,0.,.F.,.F.,#38);
#31=VIEW_VOLUME(.PARALLEL.,#484,0.,0.,.F.,0.,.F.,.F.,#39);
#32=VIEW_VOLUME(.PARALLEL.,#487,0.,0.,.F.,0.,.F.,.F.,#40);
#33=VIEW_VOLUME(.PARALLEL.,#490,0.,0.,.F.,0.,.F.,.F.,#41);
#34=PLANAR_BOX('',0.154857220500202,0.154857220500202,#309);
#35=PLANAR_BOX('',0.154964764506091,0.154964764506091,#311);
#36=PLANAR_BOX('',0.154964764506091,0.154964764506091,#313);
#37=PLANAR_BOX('',0.154964764506091,0.154964764506091,#315);
#38=PLANAR_BOX('',0.154857220500202,0.154857220500202,#317);
#39=PLANAR_BOX('',0.154964764506091,0.154964764506091,#319);
#40=PLANAR_BOX('',0.205380823840089,0.205380823840089,#321);
#41=PLANAR_BOX('',0.191476259692881,0.191476259692881,#323);
#42=DRAUGHTING_MODEL('Top',(#18),#493);
#43=DRAUGHTING_MODEL('Front',(#19),#493);
#44=DRAUGHTING_MODEL('Right',(#20),#493);
#45=DRAUGHTING_MODEL('Back',(#21),#493);
#46=DRAUGHTING_MODEL('Bottom',(#22),#493);
#47=DRAUGHTING_MODEL('Left',(#23),#493);
#48=DRAUGHTING_MODEL('Isometric',(#24),#493);
#49=DRAUGHTING_MODEL('Trimetric',(#25),#493);
#50=SHAPE_REPRESENTATION_RELATIONSHIP('','',#283,#51);
#51=ADVANCED_BREP_SHAPE_REPRESENTATION('',(#281),#493);
#52=LINE('',#428,#70);
#53=LINE('',#431,#71);
#54=LINE('',#433,#72);
#55=LINE('',#435,#73);
#56=LINE('',#437,#74);
#57=LINE('',#439,#75);
#58=LINE('',#444,#76);
#59=LINE('',#447,#77);
#60=LINE('',#449,#78);
#61=LINE('',#451,#79);
#62=LINE('',#453,#80);
#63=LINE('',#455,#81);
#64=LINE('',#457,#82);
#65=LINE('',#458,#83);
#66=LINE('',#460,#84);
#67=LINE('',#462,#85);
#68=LINE('',#464,#86);
#69=LINE('',#466,#87);
#70=VECTOR('',#354,1000.);
#71=VECTOR('',#355,1000.);
#72=VECTOR('',#356,1000.);
#73=VECTOR('',#357,1000.);
#74=VECTOR('',#358,1000.);
#75=VECTOR('',#359,1000.);
#76=VECTOR('',#366,1000.);
#77=VECTOR('',#367,1000.);
#78=VECTOR('',#368,1000.);
#79=VECTOR('',#369,1000.);
#80=VECTOR('',#370,1000.);
#81=VECTOR('',#371,1000.);
#82=VECTOR('',#374,1000.);
#83=VECTOR('',#375,1000.);
#84=VECTOR('',#378,1000.);
#85=VECTOR('',#381,1000.);
#86=VECTOR('',#384,1000.);
#87=VECTOR('',#387,1000.);
#88=PLANE('',#291);
#89=PLANE('',#293);
#90=PLANE('',#295);
#91=PLANE('',#298);
#92=PLANE('',#301);
#93=PLANE('',#302);
#94=PLANE('',#303);
#95=PLANE('',#304);
#96=PLANE('',#305);
#97=PLANE('',#306);
#98=PLANE('',#307);
#99=ORIENTED_EDGE('',*,*,#151,.T.);
#100=ORIENTED_EDGE('',*,*,#152,.F.);
#101=ORIENTED_EDGE('',*,*,#153,.F.);
#102=ORIENTED_EDGE('',*,*,#154,.T.);
#103=ORIENTED_EDGE('',*,*,#155,.F.);
#104=ORIENTED_EDGE('',*,*,#153,.T.);
#105=ORIENTED_EDGE('',*,*,#156,.T.);
#106=ORIENTED_EDGE('',*,*,#154,.F.);
#107=ORIENTED_EDGE('',*,*,#157,.T.);
#108=ORIENTED_EDGE('',*,*,#151,.F.);
#109=ORIENTED_EDGE('',*,*,#155,.T.);
#110=ORIENTED_EDGE('',*,*,#157,.F.);
#111=ORIENTED_EDGE('',*,*,#158,.F.);
#112=ORIENTED_EDGE('',*,*,#159,.F.);
#113=ORIENTED_EDGE('',*,*,#160,.F.);
#114=ORIENTED_EDGE('',*,*,#161,.F.);
#115=ORIENTED_EDGE('',*,*,#162,.F.);
#116=ORIENTED_EDGE('',*,*,#163,.F.);
#117=ORIENTED_EDGE('',*,*,#164,.T.);
#118=ORIENTED_EDGE('',*,*,#164,.F.);
#119=ORIENTED_EDGE('',*,*,#156,.F.);
#120=ORIENTED_EDGE('',*,*,#165,.F.);
#121=ORIENTED_EDGE('',*,*,#166,.F.);
#122=ORIENTED_EDGE('',*,*,#167,.F.);
#123=ORIENTED_EDGE('',*,*,#168,.F.);
#124=ORIENTED_EDGE('',*,*,#169,.F.);
#125=ORIENTED_EDGE('',*,*,#170,.F.);
#126=ORIENTED_EDGE('',*,*,#152,.T.);
#127=ORIENTED_EDGE('',*,*,#158,.T.);
#128=ORIENTED_EDGE('',*,*,#171,.T.);
#129=ORIENTED_EDGE('',*,*,#165,.T.);
#130=ORIENTED_EDGE('',*,*,#172,.F.);
#131=ORIENTED_EDGE('',*,*,#163,.T.);
#132=ORIENTED_EDGE('',*,*,#173,.T.);
#133=ORIENTED_EDGE('',*,*,#166,.T.);
#134=ORIENTED_EDGE('',*,*,#171,.F.);
#135=ORIENTED_EDGE('',*,*,#162,.T.);
#136=ORIENTED_EDGE('',*,*,#174,.T.);
#137=ORIENTED_EDGE('',*,*,#167,.T.);
#138=ORIENTED_EDGE('',*,*,#173,.F.);
#139=ORIENTED_EDGE('',*,*,#161,.T.);
#140=ORIENTED_EDGE('',*,*,#175,.T.);
#141=ORIENTED_EDGE('',*,*,#168,.T.);
#142=ORIENTED_EDGE('',*,*,#174,.F.);
#143=ORIENTED_EDGE('',*,*,#160,.T.);
#144=ORIENTED_EDGE('',*,*,#176,.T.);
#145=ORIENTED_EDGE('',*,*,#169,.T.);
#146=ORIENTED_EDGE('',*,*,#175,.F.);
#147=ORIENTED_EDGE('',*,*,#159,.T.);
#148=ORIENTED_EDGE('',*,*,#172,.T.);
#149=ORIENTED_EDGE('',*,*,#170,.T.);
#150=ORIENTED_EDGE('',*,*,#176,.F.);
#151=EDGE_CURVE('',#177,#177,#197,.F.);
#152=EDGE_CURVE('',#178,#178,#198,.F.);
#153=EDGE_CURVE('',#179,#179,#199,.T.);
#154=EDGE_CURVE('',#180,#180,#200,.T.);
#155=EDGE_CURVE('',#181,#181,#201,.T.);
#156=EDGE_CURVE('',#182,#182,#202,.T.);
#157=EDGE_CURVE('',#183,#183,#203,.F.);
#158=EDGE_CURVE('',#184,#185,#52,.T.);
#159=EDGE_CURVE('',#186,#184,#53,.T.);
#160=EDGE_CURVE('',#187,#186,#54,.T.);
#161=EDGE_CURVE('',#188,#187,#55,.T.);
#162=EDGE_CURVE('',#189,#188,#56,.T.);
#163=EDGE_CURVE('',#185,#189,#57,.T.);
#164=EDGE_CURVE('',#190,#190,#204,.F.);
#165=EDGE_CURVE('',#191,#192,#58,.F.);
#166=EDGE_CURVE('',#193,#191,#59,.F.);
#167=EDGE_CURVE('',#194,#193,#60,.F.);
#168=EDGE_CURVE('',#195,#194,#61,.F.);
#169=EDGE_CURVE('',#196,#195,#62,.F.);
#170=EDGE_CURVE('',#192,#196,#63,.F.);
#171=EDGE_CURVE('',#185,#191,#64,.F.);
#172=EDGE_CURVE('',#184,#192,#65,.F.);
#173=EDGE_CURVE('',#189,#193,#66,.F.);
#174=EDGE_CURVE('',#188,#194,#67,.F.);
#175=EDGE_CURVE('',#187,#195,#68,.F.);
#176=EDGE_CURVE('',#186,#196,#69,.F.);
#177=VERTEX_POINT('',#409);
#178=VERTEX_POINT('',#411);
#179=VERTEX_POINT('',#414);
#180=VERTEX_POINT('',#416);
#181=VERTEX_POINT('',#419);
#182=VERTEX_POINT('',#422);
#183=VERTEX_POINT('',#425);
#184=VERTEX_POINT('',#429);
#185=VERTEX_POINT('',#430);
#186=VERTEX_POINT('',#432);
#187=VERTEX_POINT('',#434);
#188=VERTEX_POINT('',#436);
#189=VERTEX_POINT('',#438);
#190=VERTEX_POINT('',#441);
#191=VERTEX_POINT('',#445);
#192=VERTEX_POINT('',#446);
#193=VERTEX_POINT('',#448);
#194=VERTEX_POINT('',#450);
#195=VERTEX_POINT('',#452);
#196=VERTEX_POINT('',#454);
#197=CIRCLE('',#286,3.9);
#198=CIRCLE('',#287,3.9);
#199=CIRCLE('',#289,75.064381280342);
#200=CIRCLE('',#290,75.064381280342);
#201=CIRCLE('',#292,7.6);
#202=CIRCLE('',#294,9.1);
#203=CIRCLE('',#296,7.6);
#204=CIRCLE('',#299,9.09999999999999);
#205=EDGE_LOOP('',(#99));
#206=EDGE_LOOP('',(#100));
#207=EDGE_LOOP('',(#101));
#208=EDGE_LOOP('',(#102));
#209=EDGE_LOOP('',(#103));
#210=EDGE_LOOP('',(#104));
#211=EDGE_LOOP('',(#105));
#212=EDGE_LOOP('',(#106));
#213=EDGE_LOOP('',(#107));
#214=EDGE_LOOP('',(#108));
#215=EDGE_LOOP('',(#109));
#216=EDGE_LOOP('',(#110));
#217=EDGE_LOOP('',(#111,#112,#113,#114,#115,#116));
#218=EDGE_LOOP('',(#117));
#219=EDGE_LOOP('',(#118));
#220=EDGE_LOOP('',(#119));
#221=EDGE_LOOP('',(#120,#121,#122,#123,#124,#125));
#222=EDGE_LOOP('',(#126));
#223=EDGE_LOOP('',(#127,#128,#129,#130));
#224=EDGE_LOOP('',(#131,#132,#133,#134));
#225=EDGE_LOOP('',(#135,#136,#137,#138));
#226=EDGE_LOOP('',(#139,#140,#141,#142));
#227=EDGE_LOOP('',(#143,#144,#145,#146));
#228=EDGE_LOOP('',(#147,#148,#149,#150));
#229=FACE_BOUND('',#205,.T.);
#230=FACE_BOUND('',#206,.T.);
#231=FACE_BOUND('',#207,.T.);
#232=FACE_BOUND('',#208,.T.);
#233=FACE_BOUND('',#209,.T.);
#234=FACE_BOUND('',#210,.T.);
#235=FACE_BOUND('',#211,.T.);
#236=FACE_BOUND('',#212,.T.);
#237=FACE_BOUND('',#213,.T.);
#238=FACE_BOUND('',#214,.T.);
#239=FACE_BOUND('',#215,.T.);
#240=FACE_BOUND('',#216,.T.);
#241=FACE_BOUND('',#217,.T.);
#242=FACE_BOUND('',#218,.T.);
#243=FACE_BOUND('',#219,.T.);
#244=FACE_BOUND('',#220,.T.);
#245=FACE_BOUND('',#221,.T.);
#246=FACE_BOUND('',#222,.T.);
#247=FACE_BOUND('',#223,.T.);
#248=FACE_BOUND('',#224,.T.);
#249=FACE_BOUND('',#225,.T.);
#250=FACE_BOUND('',#226,.T.);
#251=FACE_BOUND('',#227,.T.);
#252=FACE_BOUND('',#228,.T.);
#253=CYLINDRICAL_SURFACE('',#285,3.9);
#254=CYLINDRICAL_SURFACE('',#288,75.064381280342);
#255=CYLINDRICAL_SURFACE('',#297,7.6);
#256=CYLINDRICAL_SURFACE('',#300,9.09999999999999);
#257=ADVANCED_FACE('',(#229,#230),#253,.F.);
#258=ADVANCED_FACE('',(#231,#232),#254,.T.);
#259=ADVANCED_FACE('',(#233,#234),#88,.T.);
#260=ADVANCED_FACE('',(#235,#236),#89,.F.);
#261=ADVANCED_FACE('',(#237,#238),#90,.F.);
#262=ADVANCED_FACE('',(#239,#240),#255,.F.);
#263=ADVANCED_FACE('',(#241,#242),#91,.T.);
#264=ADVANCED_FACE('',(#243,#244),#256,.F.);
#265=ADVANCED_FACE('',(#245,#246),#92,.T.);
#266=ADVANCED_FACE('',(#247),#93,.F.);
#267=ADVANCED_FACE('',(#248),#94,.F.);
#268=ADVANCED_FACE('',(#249),#95,.F.);
#269=ADVANCED_FACE('',(#250),#96,.F.);
#270=ADVANCED_FACE('',(#251),#97,.F.);
#271=ADVANCED_FACE('',(#252),#98,.F.);
#272=CLOSED_SHELL('',(#257,#258,#259,#260,#261,#262,#263,#264,#265,#266,
#267,#268,#269,#270,#271));
#273=STYLED_ITEM('',(#274),#281);
#274=PRESENTATION_STYLE_ASSIGNMENT((#275));
#275=SURFACE_STYLE_USAGE(.BOTH.,#276);
#276=SURFACE_SIDE_STYLE('',(#277));
#277=SURFACE_STYLE_FILL_AREA(#278);
#278=FILL_AREA_STYLE('',(#279));
#279=FILL_AREA_STYLE_COLOUR('',#280);
#280=COLOUR_RGB('',0.596063172350652,0.666666666666667,0.686259250782025);
#281=MANIFOLD_SOLID_BREP('',#272);
#282=SHAPE_DEFINITION_REPRESENTATION(#498,#283);
#283=SHAPE_REPRESENTATION('tool2_sander',(#284),#493);
#284=AXIS2_PLACEMENT_3D('',#406,#324,#325);
#285=AXIS2_PLACEMENT_3D('',#407,#326,#327);
#286=AXIS2_PLACEMENT_3D('',#408,#328,#329);
#287=AXIS2_PLACEMENT_3D('',#410,#330,#331);
#288=AXIS2_PLACEMENT_3D('',#412,#332,#333);
#289=AXIS2_PLACEMENT_3D('',#413,#334,#335);
#290=AXIS2_PLACEMENT_3D('',#415,#336,#337);
#291=AXIS2_PLACEMENT_3D('',#417,#338,#339);
#292=AXIS2_PLACEMENT_3D('',#418,#340,#341);
#293=AXIS2_PLACEMENT_3D('',#420,#342,#343);
#294=AXIS2_PLACEMENT_3D('',#421,#344,#345);
#295=AXIS2_PLACEMENT_3D('',#423,#346,#347);
#296=AXIS2_PLACEMENT_3D('',#424,#348,#349);
#297=AXIS2_PLACEMENT_3D('',#426,#350,#351);
#298=AXIS2_PLACEMENT_3D('',#427,#352,#353);
#299=AXIS2_PLACEMENT_3D('',#440,#360,#361);
#300=AXIS2_PLACEMENT_3D('',#442,#362,#363);
#301=AXIS2_PLACEMENT_3D('',#443,#364,#365);
#302=AXIS2_PLACEMENT_3D('',#456,#372,#373);
#303=AXIS2_PLACEMENT_3D('',#459,#376,#377);
#304=AXIS2_PLACEMENT_3D('',#461,#379,#380);
#305=AXIS2_PLACEMENT_3D('',#463,#382,#383);
#306=AXIS2_PLACEMENT_3D('',#465,#385,#386);
#307=AXIS2_PLACEMENT_3D('',#467,#388,#389);
#308=AXIS2_PLACEMENT_3D('',#468,#390,#391);
#309=AXIS2_PLACEMENT_3D('',#470,#390,#391);
#310=AXIS2_PLACEMENT_3D('',#471,#392,#393);
#311=AXIS2_PLACEMENT_3D('',#473,#392,#393);
#312=AXIS2_PLACEMENT_3D('',#474,#394,#395);
#313=AXIS2_PLACEMENT_3D('',#476,#394,#395);
#314=AXIS2_PLACEMENT_3D('',#477,#396,#397);
#315=AXIS2_PLACEMENT_3D('',#479,#396,#397);
#316=AXIS2_PLACEMENT_3D('',#480,#398,#399);
#317=AXIS2_PLACEMENT_3D('',#482,#398,#399);
#318=AXIS2_PLACEMENT_3D('',#483,#400,#401);
#319=AXIS2_PLACEMENT_3D('',#485,#400,#401);
#320=AXIS2_PLACEMENT_3D('',#486,#402,#403);
#321=AXIS2_PLACEMENT_3D('',#488,#402,#403);
#322=AXIS2_PLACEMENT_3D('',#489,#404,#405);
#323=AXIS2_PLACEMENT_3D('',#491,#404,#405);
#324=DIRECTION('',(0.,0.,1.));
#325=DIRECTION('',(1.,0.,0.));
#326=DIRECTION('',(-0.991519744867291,-0.0787816580447585,0.103353983445343));
#327=DIRECTION('',(0.103676220021142,0.,0.994611100582598));
#328=DIRECTION('',(-0.991519744867291,-0.0787816580447585,0.103353983445345));
#329=DIRECTION('',(0.103676220021144,0.,0.994611100582598));
#330=DIRECTION('',(-0.991519744867292,-0.0787816580447572,0.103353983445341));
#331=DIRECTION('',(0.103676220021141,0.,0.994611100582599));
#332=DIRECTION('',(-0.991519744867291,-0.0787816580447585,0.103353983445343));
#333=DIRECTION('',(0.103676220021142,0.,0.994611100582598));
#334=DIRECTION('',(0.991519744867291,0.0787816580447585,-0.103353983445343));
#335=DIRECTION('',(0.0530910299611908,-0.97146299004774,-0.231173098575859));
#336=DIRECTION('',(0.991519744867291,0.0787816580447585,-0.103353983445343));
#337=DIRECTION('',(0.0530910299611908,-0.97146299004774,-0.231173098575859));
#338=DIRECTION('',(0.991519744867291,0.0787816580447585,-0.103353983445343));
#339=DIRECTION('',(-0.103676220021142,0.,-0.994611100582598));
#340=DIRECTION('',(0.991519744867291,0.0787816580447585,-0.103353983445343));
#341=DIRECTION('',(-0.103676220021142,0.,-0.994611100582598));
#342=DIRECTION('',(0.991519744867291,0.0787816580447585,-0.103353983445343));
#343=DIRECTION('',(-0.103676220021142,0.,-0.994611100582598));
#344=DIRECTION('',(0.991519744867291,0.0787816580447585,-0.103353983445345));
#345=DIRECTION('',(-0.103676220021144,0.,-0.994611100582598));
#346=DIRECTION('',(-0.991519744867291,-0.0787816580447585,0.103353983445345));
#347=DIRECTION('',(0.103676220021144,0.,0.994611100582598));
#348=DIRECTION('',(-0.991519744867291,-0.0787816580447585,0.103353983445345));
#349=DIRECTION('',(0.103676220021144,0.,0.994611100582598));
#350=DIRECTION('',(-0.991519744867291,-0.0787816580447585,0.103353983445345));
#351=DIRECTION('',(0.103676220021144,0.,0.994611100582598));
#352=DIRECTION('',(-0.991519744867291,-0.0787816580447585,0.103353983445345));
#353=DIRECTION('',(0.103676220021144,0.,0.994611100582598));
#354=DIRECTION('',(-0.0506076844998442,-0.498445947509783,-0.865442372247071));
#355=DIRECTION('',(-0.128964796113463,0.49844594750979,-0.857274587733989));
#356=DIRECTION('',(-0.0783571116136194,0.996891895019575,0.00816778451308351));
#357=DIRECTION('',(0.0506076844998469,0.498445947509785,0.86544237224707));
#358=DIRECTION('',(0.128964796113466,-0.49844594750979,0.857274587733988));
#359=DIRECTION('',(0.0783571116136177,-0.996891895019575,-0.00816778451308008));
#360=DIRECTION('',(0.991519744867291,0.0787816580447585,-0.103353983445345));
#361=DIRECTION('',(-0.103676220021144,0.,-0.994611100582598));
#362=DIRECTION('',(0.991519744867291,0.0787816580447585,-0.103353983445345));
#363=DIRECTION('',(-0.103676220021144,0.,-0.994611100582598));
#364=DIRECTION('',(-0.991519744867292,-0.0787816580447572,0.103353983445341));
#365=DIRECTION('',(0.103676220021141,0.,0.994611100582599));
#366=DIRECTION('',(-0.0506076844998442,-0.498445947509783,-0.865442372247071));
#367=DIRECTION('',(0.0783571116136177,-0.996891895019575,-0.00816778451308008));
#368=DIRECTION('',(0.128964796113466,-0.49844594750979,0.857274587733988));
#369=DIRECTION('',(0.0506076844998469,0.498445947509785,0.86544237224707));
#370=DIRECTION('',(-0.0783571116136194,0.996891895019575,0.00816778451308351));
#371=DIRECTION('',(-0.128964796113463,0.49844594750979,-0.857274587733989));
#372=DIRECTION('',(-0.119697359235138,0.863333705913764,-0.490232041410332));
#373=DIRECTION('',(0.,0.493782124479988,0.869585656243265));
#374=DIRECTION('',(-0.991519744867291,-0.0787816580447584,0.103353983445343));
#375=DIRECTION('',(-0.991519744867291,-0.0787816580447584,0.103353983445343));
#376=DIRECTION('',(-0.103676220021142,1.43623732910046E-15,-0.994611100582598));
#377=DIRECTION('',(-0.994611100582599,0.,0.103676220021142));
#378=DIRECTION('',(-0.991519744867291,-0.0787816580447584,0.103353983445343));
#379=DIRECTION('',(0.0160211392139952,-0.86333370591376,-0.504379059172265));
#380=DIRECTION('',(0.,0.504443802863288,-0.863444526158354));
#381=DIRECTION('',(-0.991519744867291,-0.0787816580447584,0.103353983445343));
#382=DIRECTION('',(0.119697359235138,-0.863333705913763,0.490232041410334));
#383=DIRECTION('',(0.,-0.493782124479989,-0.869585656243264));
#384=DIRECTION('',(-0.991519744867291,-0.0787816580447584,0.103353983445343));
#385=DIRECTION('',(0.103676220021143,-4.66405263834466E-15,0.994611100582598));
#386=DIRECTION('',(0.994611100582598,0.,-0.103676220021143));
#387=DIRECTION('',(-0.991519744867291,-0.0787816580447584,0.103353983445343));
#388=DIRECTION('',(-0.0160211392139952,0.86333370591376,0.504379059172265));
#389=DIRECTION('',(0.,-0.504443802863288,0.863444526158354));
#390=DIRECTION('',(0.,0.,1.));
#391=DIRECTION('',(1.,0.,0.));
#392=DIRECTION('',(0.,-1.,0.));
#393=DIRECTION('',(1.,0.,0.));
#394=DIRECTION('',(1.,0.,0.));
#395=DIRECTION('',(0.,1.,0.));
#396=DIRECTION('',(0.,1.,0.));
#397=DIRECTION('',(-1.,0.,0.));
#398=DIRECTION('',(0.,0.,-1.));
#399=DIRECTION('',(1.,0.,0.));
#400=DIRECTION('',(-1.,0.,0.));
#401=DIRECTION('',(0.,-1.,0.));
#402=DIRECTION('',(0.577350269189626,-0.577350269189626,0.577350269189626));
#403=DIRECTION('',(0.707106766267693,0.707106796105402,2.98377088869817E-8));
#404=DIRECTION('',(0.718873086818576,-0.585048618558824,0.375419230954334));
#405=DIRECTION('',(0.631219067807801,0.775604595419502,-7.02063876478753E-9));
#406=CARTESIAN_POINT('',(0.,0.,0.));
#407=CARTESIAN_POINT('',(77.7905813942131,-4.01803916445861,92.4475045455453));
#408=CARTESIAN_POINT('',(70.849943180142,-4.56951077077192,93.1709824296627));
#409=CARTESIAN_POINT('',(71.2542804382245,-4.56951077077192,97.0499657219348));
#410=CARTESIAN_POINT('',(67.2804720986197,-4.85312473973306,93.543056770066));
#411=CARTESIAN_POINT('',(67.6848093567021,-4.85312473973306,97.4220400623381));
#412=CARTESIAN_POINT('',(77.7905813942131,-4.01803916445861,92.4475045455453));
#413=CARTESIAN_POINT('',(77.7905813942131,-4.01803916445861,92.4475045455453));
#414=CARTESIAN_POINT('',(81.7758267097859,-76.9403074491433,75.0946389322889));
#415=CARTESIAN_POINT('',(59.9432259866018,-5.43610900926426,94.3078762475615));
#416=CARTESIAN_POINT('',(63.9284713021747,-78.358377293949,76.9550106343051));
#417=CARTESIAN_POINT('',(77.7905813942131,-4.01803916445861,92.4475045455453));
#418=CARTESIAN_POINT('',(77.7905813942131,-4.01803916445861,92.4475045455453));
#419=CARTESIAN_POINT('',(77.0026421220524,-4.01803916445861,84.8884601811176));
#420=CARTESIAN_POINT('',(59.9432259866018,-5.43610900926426,94.3078762475615));
#421=CARTESIAN_POINT('',(59.9432259866018,-5.43610900926426,94.3078762475615));
#422=CARTESIAN_POINT('',(58.9997723844094,-5.43610900926426,85.2569152322599));
#423=CARTESIAN_POINT('',(70.849943180142,-4.56951077077192,93.1709824296627));
#424=CARTESIAN_POINT('',(70.849943180142,-4.56951077077192,93.1709824296627));
#425=CARTESIAN_POINT('',(71.6378824523027,-4.56951077077192,100.73002679409));
#426=CARTESIAN_POINT('',(84.7312196082841,-3.4665675581453,91.7240266614279));
#427=CARTESIAN_POINT('',(64.1528075421684,-5.10163476773864,103.018074299775));
#428=CARTESIAN_POINT('',(62.5818881519012,2.88165171747853,94.0328275184143));
#429=CARTESIAN_POINT('',(62.5818881519012,2.88165171747853,94.0328275184143));
#430=CARTESIAN_POINT('',(62.1728311081345,-1.14723891011899,87.0375401062249));
#431=CARTESIAN_POINT('',(63.6242981884305,-1.14723891011906,100.962095514381));
#432=CARTESIAN_POINT('',(63.6242981884305,-1.14723891011906,100.962095514381));
#433=CARTESIAN_POINT('',(64.2576511811932,-9.20502016531413,100.896076098159));
#434=CARTESIAN_POINT('',(64.2576511811932,-9.20502016531412,100.896076098159));
#435=CARTESIAN_POINT('',(63.8485941374265,-13.2339107929117,93.9007886859696));
#436=CARTESIAN_POINT('',(63.8485941374265,-13.2339107929117,93.9007886859696));
#437=CARTESIAN_POINT('',(62.8061841008971,-9.20502016531408,86.9715206900026));
#438=CARTESIAN_POINT('',(62.8061841008971,-9.20502016531412,86.9715206900026));
#439=CARTESIAN_POINT('',(62.1728311081345,-1.14723891011902,87.0375401062249));
#440=CARTESIAN_POINT('',(63.2152411446638,-5.17612953771657,93.9668081021919));
#441=CARTESIAN_POINT('',(62.2717875424714,-5.17612953771657,84.9158470868903));
#442=CARTESIAN_POINT('',(59.9432259866018,-5.43610900926427,94.3078762475615));
#443=CARTESIAN_POINT('',(56.1790444900863,4.46373185729303,-5.85598830911896));
#444=CARTESIAN_POINT('',(66.6471191058571,3.20465651546204,93.6090761862884));
#445=CARTESIAN_POINT('',(66.2380620620904,-0.824234112135478,86.613788774099));
#446=CARTESIAN_POINT('',(66.6471191058571,3.20465651546204,93.6090761862884));
#447=CARTESIAN_POINT('',(66.2380620620904,-0.824234112135511,86.613788774099));
#448=CARTESIAN_POINT('',(66.871415054853,-8.88201536733061,86.5477693578767));
#449=CARTESIAN_POINT('',(66.871415054853,-8.88201536733057,86.5477693578767));
#450=CARTESIAN_POINT('',(67.9138250913824,-12.9109059949281,93.4770373538437));
#451=CARTESIAN_POINT('',(67.9138250913824,-12.9109059949281,93.4770373538437));
#452=CARTESIAN_POINT('',(68.3228821351491,-8.88201536733061,100.472324766033));
#453=CARTESIAN_POINT('',(68.3228821351491,-8.88201536733062,100.472324766033));
#454=CARTESIAN_POINT('',(67.6895291423864,-0.824234112135518,100.538344182255));
#455=CARTESIAN_POINT('',(67.6895291423864,-0.824234112135548,100.538344182255));
#456=CARTESIAN_POINT('',(66.6471191058571,3.20465651546204,93.6090761862884));
#457=CARTESIAN_POINT('',(66.2380620620904,-0.824234112135478,86.613788774099));
#458=CARTESIAN_POINT('',(66.6471191058571,3.20465651546204,93.6090761862884));
#459=CARTESIAN_POINT('',(66.2380620620904,-0.824234112135511,86.613788774099));
#460=CARTESIAN_POINT('',(66.871415054853,-8.88201536733061,86.5477693578767));
#461=CARTESIAN_POINT('',(66.871415054853,-8.88201536733057,86.5477693578767));
#462=CARTESIAN_POINT('',(67.9138250913824,-12.9109059949281,93.4770373538437));
#463=CARTESIAN_POINT('',(67.9138250913824,-12.9109059949281,93.4770373538437));
#464=CARTESIAN_POINT('',(68.3228821351491,-8.88201536733061,100.472324766033));
#465=CARTESIAN_POINT('',(68.3228821351491,-8.88201536733062,100.472324766033));
#466=CARTESIAN_POINT('',(67.6895291423864,-0.824234112135518,100.538344182255));
#467=CARTESIAN_POINT('',(67.6895291423864,-0.824234112135548,100.538344182255));
#468=CARTESIAN_POINT('',(0.0688669052124024,-0.00472707414627075,0.));
#469=CARTESIAN_POINT('',(0.0688669052124024,-0.00472707414627075,0.310549194335938));
#470=CARTESIAN_POINT('',(-0.00856170503769862,-0.0821556843963717,0.));
#471=CARTESIAN_POINT('',(0.0688669052124024,0.,0.0933776931762695));
#472=CARTESIAN_POINT('',(0.0688669052124024,-0.310764862060547,0.0933776931762695));
#473=CARTESIAN_POINT('',(-0.00861547704064332,-0.0774823822530457,0.0933776931762695));
#474=CARTESIAN_POINT('',(0.,-0.00472707414627075,0.0933776931762695));
#475=CARTESIAN_POINT('',(0.310764862060547,-0.00472707414627075,0.0933776931762695));
#476=CARTESIAN_POINT('',(-0.0774823822530457,-0.0822094563993164,0.0933776931762695));
#477=CARTESIAN_POINT('',(0.0688669052124024,0.,0.0933776931762695));
#478=CARTESIAN_POINT('',(0.0688669052124024,0.310764862060547,0.0933776931762695));
#479=CARTESIAN_POINT('',(-0.00861547704064332,-0.0774823822530457,0.0933776931762695));
#480=CARTESIAN_POINT('',(0.0688669052124024,-0.00472707414627075,0.));
#481=CARTESIAN_POINT('',(0.0688669052124024,-0.00472707414627075,-0.310549194335938));
#482=CARTESIAN_POINT('',(-0.00856170503769862,-0.0821556843963717,0.));
#483=CARTESIAN_POINT('',(0.,-0.00472707414627075,0.0933776931762695));
#484=CARTESIAN_POINT('',(-0.310764862060547,-0.00472707414627075,0.0933776931762695));
#485=CARTESIAN_POINT('',(-0.0774823822530457,-0.0822094563993164,0.0933776931762695));
#486=CARTESIAN_POINT('',(0.013209680557251,0.0509301490783691,0.0377204666137695));
#487=CARTESIAN_POINT('',(0.251002212524414,-0.186862382888794,0.275512998580933));
#488=CARTESIAN_POINT('',(-0.0894807313627935,-0.0517602628416754,0.0377204666137695));
#489=CARTESIAN_POINT('',(0.00608921718597412,0.0463639984130859,0.0605931129455566));
#490=CARTESIAN_POINT('',(0.282125459745089,-0.178285700320364,0.204748341173234));
#491=CARTESIAN_POINT('',(-0.0896489126604665,-0.0493741314333547,0.0605931129455566));
#492=MECHANICAL_DESIGN_GEOMETRIC_PRESENTATION_REPRESENTATION('',(#273),
#493);
#493=(
GEOMETRIC_REPRESENTATION_CONTEXT(3)
GLOBAL_UNCERTAINTY_ASSIGNED_CONTEXT((#494))
GLOBAL_UNIT_ASSIGNED_CONTEXT((#497,#496,#495))
REPRESENTATION_CONTEXT('tool2_sander','TOP_LEVEL_ASSEMBLY_PART')
);
#494=UNCERTAINTY_MEASURE_WITH_UNIT(LENGTH_MEASURE(0.005),#497,
'DISTANCE_ACCURACY_VALUE','Maximum Tolerance applied to model');
#495=(
NAMED_UNIT(*)
SI_UNIT($,.STERADIAN.)
SOLID_ANGLE_UNIT()
);
#496=(
NAMED_UNIT(*)
PLANE_ANGLE_UNIT()
SI_UNIT($,.RADIAN.)
);
#497=(
LENGTH_UNIT()
NAMED_UNIT(*)
SI_UNIT(.MILLI.,.METRE.)
);
#498=PRODUCT_DEFINITION_SHAPE('','',#499);
#499=PRODUCT_DEFINITION('','',#501,#500);
#500=PRODUCT_DEFINITION_CONTEXT('',#507,'design');
#501=PRODUCT_DEFINITION_FORMATION_WITH_SPECIFIED_SOURCE('','',#503,
 .NOT_KNOWN.);
#502=PRODUCT_RELATED_PRODUCT_CATEGORY('','',(#503));
#503=PRODUCT('tool2_sander','tool2_sander','tool2_sander',(#505));
#504=PRODUCT_CATEGORY('','');
#505=PRODUCT_CONTEXT('',#507,'mechanical');
#506=APPLICATION_PROTOCOL_DEFINITION('international standard',
'ap242_managed_model_based_3d_engineering',2011,#507);
#507=APPLICATION_CONTEXT('managed model based 3d engineering');
ENDSEC;
END-ISO-10303-21;
